<svg width="100" height="100" viewBox="0 0 100 100" fill="none" xmlns="http://www.w3.org/2000/svg">
<path d="M100 49.9943C100.005 59.9941 97.0091 69.7654 91.4007 78.0448C85.7922 86.3242 77.8289 92.731 68.5402 96.437C58.4182 100.478 47.2526 101.1 36.7441 98.2088C26.2357 95.3175 16.9604 89.0711 10.331 80.421C5.9777 74.7351 2.89316 68.1827 1.28502 61.2048C-0.323121 54.227 -0.417534 46.9856 1.00813 39.9682L1.06115 39.7107C2.72548 31.8269 6.26782 24.461 11.3874 18.2386C16.507 12.0161 23.0527 7.1207 30.4687 3.96808C35.5239 1.83448 40.8984 0.554984 46.3728 0.18178C47.6073 0.0454737 48.7963 3.81394e-05 50.0005 3.81394e-05C62.5786 -0.0154983 74.6992 4.71618 83.9394 13.2492C93.1796 21.7822 98.8586 33.4879 99.8411 46.0263C99.9471 47.3287 100 48.6615 100 49.9943Z" fill="#E0F1FA"/>
<path d="M99.8402 46.0255L98.8329 45.768C97.7802 45.503 97.0759 36.9611 95.9474 36.4689C94.819 35.9767 94.6827 31.8193 93.9026 31.8193C93.1226 31.8193 92.8499 32.8038 91.9335 35.5602C91.0172 38.3166 91.9335 39.0057 91.9335 40.2779C91.9335 41.5501 91.7215 43.9355 90.949 43.0873C90.1765 42.2392 86.7912 32.5236 85.4507 32.3191C84.1102 32.1146 82.9212 29.2901 81.9366 28.866C80.9521 28.4419 80.3084 29.078 78.5513 29.078C76.7943 29.078 76.6504 27.662 75.8703 27.7377C75.0903 27.8134 74.1133 27.3212 72.7804 27.1773C71.4475 27.0334 70.3493 24.6102 69.5011 25.7688C68.6529 26.9274 70.5008 29.0175 72.1897 29.9413C73.8785 30.8652 74.4617 29.752 75.628 30.1079C76.7943 30.4638 77.385 32.4403 76.7564 34.2047C76.1278 35.9691 74.4238 36.893 72.4623 37.7411C70.5008 38.5892 69.1603 39.2556 68.7438 36.6582C68.3272 34.0608 62.882 29.4339 62.2458 28.5858C61.6096 27.7377 61.5945 26.0566 60.7311 26.2686C59.5572 26.5185 58.8453 27.3061 59.0574 27.6544C59.2694 28.0027 62.0867 33.0006 64.8207 34.7726C67.017 36.1736 67.7819 39.5737 68.6908 40.7626C69.3572 41.641 71.1067 41.2699 72.7122 40.8231C72.9143 40.7663 73.1275 40.7615 73.3319 40.8094C73.5363 40.8573 73.7253 40.9561 73.8811 41.0968C74.0369 41.2375 74.1545 41.4154 74.2229 41.6138C74.2914 41.8123 74.3084 42.0248 74.2724 42.2316C73.1515 47.7823 66.0325 51.5156 65.2752 54.4917C64.4345 57.8009 66.4036 61.8144 65.9795 63.5106C65.5554 65.2069 61.3976 65.4038 61.0492 67.0319C60.7008 68.66 63.503 69.9246 61.39 71.0453C60.1782 71.6739 60.2918 69.8413 59.6405 72.0979C58.5045 76.0508 53.1653 77.944 51.2568 78.4286C49.3483 78.9133 47.8866 78.2242 48.3713 76.9141C48.856 75.604 47.0384 70.7122 44.7815 69.0916C42.5246 67.4711 42.5095 65.3053 44.0242 59.9364C45.5389 54.5674 38.0412 55.2262 39.8739 50.7129C41.7067 46.1997 38.3214 46.5556 36.2084 44.6549C34.0954 42.7541 28.4002 52.0987 22.0386 42.7844C15.6769 33.4701 25.28 27.1546 26.7568 26.1702C28.2336 25.1857 30.9146 21.7326 31.6189 21.9371C32.3233 22.1415 36.8219 21.0284 38.435 20.4604C40.0481 19.8925 42.7291 19.6199 43.1532 20.4604C43.5773 21.301 41.3962 20.9602 42.5852 22.4369C43.7742 23.9135 54.7027 24.898 56.8838 24.7087C59.065 24.5193 59.5648 24.9888 60.3979 22.7322C61.2309 20.4756 56.6642 20.6952 55.407 20.8996C54.1498 21.1041 54.1422 18.2492 52.3776 20.2787C51.6203 21.195 50.1056 19.2412 49.9844 17.7494C49.8633 16.2576 45.7585 14.4251 45.0466 15.5534C44.3347 16.6817 48.2577 17.3027 48.3562 17.8252C48.4167 18.0751 47.6518 19.0898 47.2277 19.8698C46.8036 20.6497 46.6673 19.8698 46.743 19.1655C46.8188 18.4613 44.7285 18.0296 43.9636 17.1209C43.1987 16.2122 41.275 15.7048 39.5028 16.2804C37.7307 16.8559 37.6777 17.0982 35.9888 18.855C34.2999 20.6119 31.1191 20.15 30.6874 19.8698C30.2557 19.5896 31.1191 17.598 31.3236 16.4318C31.5281 15.2656 33.7243 16.0002 34.9134 16.3485C36.1024 16.6968 36.0418 15.8563 35.8373 14.5917C35.6328 13.327 36.1175 12.7288 36.8219 12.5849C37.5262 12.4411 41.0327 11.9791 42.5928 10.3586C43.8045 9.10911 45.7661 10.0102 46.7506 10.0102C47.7351 10.0102 50.8857 9.59376 51.3931 6.22395C51.5218 5.38339 51.749 4.52769 50.3555 5.46669C49.3265 5.99533 48.5225 6.87717 48.0911 7.9505C47.667 9.00309 44.2287 8.60175 42.9866 7.8975C41.7446 7.19324 43.3426 6.47385 46.8793 4.00518C50.4161 1.53652 55.407 5.25466 56.6415 5.07292C57.8759 4.89118 61.39 1.28662 61.39 1.28662C71.7168 3.70082 81.008 9.33669 87.9201 17.3792C94.8321 25.4218 99.0067 35.4541 99.8402 46.0255Z" fill="url(#paint0_linear_115_160)"/>
<path d="M34.0047 10.2222C34.1183 10.2222 35.9965 9.32105 36.1404 9.68453C36.2843 10.048 35.4967 11.1991 35.0726 11.3429C34.6485 11.4868 33.1035 11.7973 33.0732 11.5398C33.0429 11.2823 34.0047 10.2222 34.0047 10.2222Z" fill="url(#paint1_linear_115_160)"/>
<path d="M37.9504 8.00431C37.9504 8.00431 38.5108 7.44394 38.8743 7.61053C39.2379 7.77713 40.283 9.88231 40.283 9.88231C40.283 9.88231 37.7535 11.3968 37.1173 11.253C36.4811 11.1091 38.2003 9.04175 37.9504 8.00431Z" fill="url(#paint2_linear_115_160)"/>
<path d="M92.8273 42.0798C92.6927 42.8743 92.6927 43.6858 92.8273 44.4803C92.9712 44.8892 93.5848 44.291 93.7136 44.0638C93.8424 43.8366 92.9258 42.0267 92.8273 42.0798Z" fill="url(#paint3_linear_115_160)"/>
<path d="M68.9181 64.298C68.843 64.3426 68.7783 64.4029 68.7287 64.4748C68.679 64.5466 68.6454 64.6284 68.6304 64.7145C68.5168 65.5323 68.7667 66.6607 68.4183 67.2513C68.0699 67.842 66.8506 70.3788 67.3959 71.0376C67.9412 71.6964 69.4331 72.1281 69.8572 71.4238C70.2814 70.7196 74.4846 60.9585 73.0229 60.9585C72.046 60.9585 72.8715 62.1322 71.5082 62.8289C70.5237 63.3363 69.3953 63.9875 68.9181 64.298Z" fill="url(#paint4_linear_115_160)"/>
<path d="M10.3302 80.4205C3.62099 71.6971 -0.0113356 60.9983 2.65755e-05 49.9938C-0.000539009 46.6885 0.324157 43.3911 0.969423 40.1494C0.969423 40.1494 1.00729 40.1494 1.00729 40.1494C1.00729 41.5276 1.12846 50.1074 3.04454 50.9479C5.11965 51.8491 8.86091 53.3484 9.10326 55.8095C9.34561 58.2706 7.92181 61.4663 8.34592 62.8445C8.77003 64.2227 9.4062 68.9858 9.10326 69.6598C8.80033 70.3338 7.64159 70.1445 8.17173 71.7498C8.70187 73.3552 10.4438 77.187 10.4438 78.2017C10.4733 78.9432 10.4353 79.6858 10.3302 80.4205Z" fill="url(#paint5_linear_115_160)"/>
<path d="M68.5393 96.4362C59.342 100.093 49.2688 100.949 39.5862 98.8973C40.3778 98.1069 41.3929 97.5782 42.4944 97.3828C44.2665 97.1101 52.7639 97.1101 54.2634 96.8451C55.763 96.5801 60.1025 95.2624 61.2461 95.7849C62.2572 96.3927 63.4325 96.6706 64.6087 96.5801C65.8432 96.4362 68.1228 96.6028 68.5393 96.4362Z" fill="url(#paint6_linear_115_160)"/>
<defs>
<linearGradient id="paint0_linear_115_160" x1="19.8833" y1="39.9353" x2="99.8402" y2="39.9353" gradientUnits="userSpaceOnUse">
<stop stop-color="#085078"/>
<stop offset="1" stop-color="#85D8CE"/>
</linearGradient>
<linearGradient id="paint1_linear_115_160" x1="33.0725" y1="10.6184" x2="36.1578" y2="10.6184" gradientUnits="userSpaceOnUse">
<stop stop-color="#085078"/>
<stop offset="1" stop-color="#85D8CE"/>
</linearGradient>
<linearGradient id="paint2_linear_115_160" x1="36.9751" y1="9.42109" x2="40.283" y2="9.42109" gradientUnits="userSpaceOnUse">
<stop stop-color="#085078"/>
<stop offset="1" stop-color="#85D8CE"/>
</linearGradient>
<linearGradient id="paint3_linear_115_160" x1="92.7263" y1="43.3492" x2="93.726" y2="43.3492" gradientUnits="userSpaceOnUse">
<stop stop-color="#085078"/>
<stop offset="1" stop-color="#85D8CE"/>
</linearGradient>
<linearGradient id="paint4_linear_115_160" x1="67.2576" y1="66.3718" x2="73.3303" y2="66.3718" gradientUnits="userSpaceOnUse">
<stop stop-color="#085078"/>
<stop offset="1" stop-color="#85D8CE"/>
</linearGradient>
<linearGradient id="paint5_linear_115_160" x1="0" y1="60.2849" x2="10.4534" y2="60.2849" gradientUnits="userSpaceOnUse">
<stop stop-color="#085078"/>
<stop offset="1" stop-color="#85D8CE"/>
</linearGradient>
<linearGradient id="paint6_linear_115_160" x1="39.5862" y1="97.8257" x2="68.5393" y2="97.8257" gradientUnits="userSpaceOnUse">
<stop stop-color="#085078"/>
<stop offset="1" stop-color="#85D8CE"/>
</linearGradient>
</defs>
</svg>
