<svg width="1920" height="777" viewBox="0 0 1920 777" fill="none" xmlns="http://www.w3.org/2000/svg">
<path d="M2566.25 0.228027C2451.72 78.4093 2331.98 150.021 2203.67 202.618C2162.07 219.672 2119.32 234.777 2074.87 241.535C1984.23 255.315 1892.32 233.795 1800.69 230.907C1684.31 227.236 1567.27 254.835 1464.27 308.973C1386.76 349.711 1299.56 408.801 1211.88 423.63C1132.23 437.101 1046.55 363.806 976.01 335.208C903.764 305.919 822.96 299.681 746.662 314.747C706.691 322.642 667.813 336.378 631.965 355.779C597.686 374.334 567.824 408.867 527.185 381.727C513.752 372.755 504.466 358.931 492.922 347.63C452.802 308.36 382.642 305.29 339.248 340.911" stroke="#2EA7E0" stroke-width="0.552088" stroke-miterlimit="10"/>
<path d="M2561.19 2.67969C2449.27 81.9099 2330.76 154.272 2203.16 206.676C2160.67 224.156 2117.02 238.802 2071.79 246.344C2017.22 255.371 1962.07 252.025 1906.75 247.266C1868.99 244.02 1831.15 240.111 1793.34 239.018C1718.65 236.865 1643.7 246.184 1572.24 265.811C1530.46 277.288 1489.88 292.3 1451.21 310.695C1424.04 323.554 1395.79 338.449 1366.82 352.952C1326.07 373.291 1283.87 392.835 1241 405.351C1225.6 409.862 1210.13 413.467 1194.64 415.835C1130.59 425.585 1062.75 384.294 1001.73 353.918C985.374 345.736 969.507 338.338 954.319 332.917C891.894 310.43 823.816 304.788 757.924 314.582C746.579 316.266 735.294 318.408 724.103 321.003C684.198 330.25 645.353 345.19 609.192 365.264C587.776 377.156 567.912 394.856 546.06 400.448C532.606 403.893 518.461 402.684 502.727 392.846C488.98 384.25 479.169 370.967 467.194 360.052C425.633 322.107 354.911 318.761 310.269 353.924" stroke="#2EA7E0" stroke-width="0.552088" stroke-miterlimit="10"/>
<path d="M2556.14 5.125C2446.82 85.4097 2329.55 158.517 2202.65 210.728C2159.26 228.638 2114.71 242.827 2068.7 251.141C2013.43 261.001 1957.46 258.594 1901.27 254.498C1862.9 251.704 1824.42 248.121 1785.98 247.116C1710.04 245.118 1633.85 253.626 1561.2 271.486C1518.73 281.926 1477.49 295.59 1438.14 312.406C1410.44 324.127 1381.72 337.753 1352.32 350.959C1310.93 369.454 1268.15 387.098 1224.51 398.466C1208.87 402.574 1193.14 405.869 1177.37 408.034C1112.07 416.917 1042.91 377.619 980.78 349.689C964.162 342.147 948.03 335.456 932.61 330.631C869.336 310.833 801.098 307.57 735.294 319.672C723.971 321.748 712.708 324.287 701.534 327.258C661.69 337.858 622.878 354.001 586.407 374.754C564.798 387.054 544.597 404.843 522.337 410.711C508.618 414.327 494.236 413.301 478.258 403.97C464.186 395.75 453.862 383.013 441.456 372.479C398.459 335.859 327.163 332.237 281.284 366.936" stroke="#2EA7E0" stroke-width="0.552088" stroke-miterlimit="10"/>
<path d="M2551.1 7.57129C2444.38 88.905 2328.33 162.769 2202.14 214.781C2157.87 233.116 2112.41 246.846 2065.63 255.945C2009.65 266.644 1952.86 265.17 1895.8 261.736C1856.82 259.401 1817.71 256.144 1778.63 255.216C1701.45 253.378 1624 261.068 1550.18 277.156C1507.01 286.564 1465.15 298.986 1425.08 314.113C1396.87 324.768 1367.65 337.047 1337.84 348.961C1295.8 365.612 1252.46 381.357 1208.05 391.571C1192.16 395.275 1176.17 398.262 1160.14 400.228C1093.57 408.244 1023.03 371.105 959.851 345.449C942.957 338.587 926.587 332.536 910.925 328.329C846.844 311.115 778.396 310.337 712.692 324.752C701.385 327.225 690.144 330.151 678.992 333.502C639.214 345.455 600.436 362.802 563.655 384.234C541.854 396.943 521.321 414.819 498.647 420.964C484.663 424.757 470.043 423.918 453.818 415.079C439.419 407.239 428.581 395.038 415.745 384.885C371.308 349.59 299.448 345.687 252.322 379.933" stroke="#2EA7E0" stroke-width="0.552088" stroke-miterlimit="10"/>
<path d="M2546.04 10.0225C2441.93 92.4051 2327.12 167.02 2201.64 218.844C2156.46 237.61 2110.13 250.97 2062.55 260.753C2005.89 272.397 1948.27 271.751 1890.32 268.985C1850.74 267.102 1811 264.176 1771.28 263.332C1692.86 261.653 1614.16 268.532 1539.15 282.848C1495.29 291.218 1452.77 302.326 1412.03 315.841C1383.28 325.381 1353.59 336.362 1323.35 346.99C1280.67 361.797 1236.75 375.643 1191.57 384.703C1175.44 388.004 1159.19 390.682 1142.89 392.443C1075.07 399.593 1003.2 364.496 938.91 341.231C921.751 335.02 905.139 329.637 889.233 326.049C824.357 311.419 755.694 313.124 690.078 329.847C678.788 332.713 667.569 336.031 656.439 339.763C616.728 353.068 577.976 371.618 540.887 393.724C518.892 406.842 498.029 424.801 474.94 431.227C460.691 435.197 445.829 434.545 429.365 426.203C414.636 418.745 403.29 407.084 390.024 397.313C344.145 363.343 271.716 359.163 223.354 392.945" stroke="#2EA7E0" stroke-width="0.552088" stroke-miterlimit="10"/>
<path d="M2541 12.4678C2439.49 95.9049 2325.91 171.271 2201.13 222.896C2155.06 242.087 2107.84 255.011 2059.47 265.551C2002.12 278.05 1943.66 278.32 1884.85 276.217C1844.66 274.793 1804.29 272.192 1763.93 271.425C1684.26 269.907 1604.31 275.969 1528.12 288.518C1483.56 295.855 1440.38 305.638 1398.97 317.546C1369.69 325.966 1339.55 335.732 1308.86 344.991C1265.58 358.059 1221.03 369.79 1175.1 377.807C1158.72 380.667 1142.22 383.074 1125.64 384.631C1056.55 390.913 983.364 357.854 917.969 336.991C900.551 331.431 883.684 326.717 867.536 323.746C801.87 311.683 732.986 315.89 667.459 334.926C656.191 338.189 644.995 341.893 633.876 346.006C594.23 360.67 555.507 380.424 518.108 403.203C495.92 416.729 474.719 434.777 451.223 441.479C436.708 445.625 421.603 445.162 404.902 437.316C389.841 430.239 377.988 419.12 364.291 409.729C316.977 377.084 243.98 372.628 194.369 405.952" stroke="#2EA7E0" stroke-width="0.552088" stroke-miterlimit="10"/>
<path d="M2535.95 14.9194C2437.05 99.4055 2324.7 175.522 2200.62 226.955C2153.66 246.576 2105.54 259.053 2056.39 270.36C1998.34 283.715 1939.06 284.896 1879.37 283.461C1838.58 282.489 1797.57 280.22 1756.58 279.535C1675.67 278.177 1594.47 283.428 1517.08 294.199C1471.84 300.498 1427.99 308.962 1385.91 319.264C1356.1 326.562 1325.49 335.048 1294.38 343.003C1250.45 354.244 1205.33 364.044 1158.64 370.923C1142.01 373.374 1125.24 375.483 1108.4 376.83C1038.05 382.246 963.544 351.224 897.034 332.757C879.356 327.849 862.247 323.796 845.844 321.456C779.395 311.96 710.285 318.667 644.846 340.011C633.594 343.666 622.42 347.762 611.323 352.251C571.744 368.267 533.053 389.224 495.34 412.683C472.958 426.617 451.427 444.753 427.516 451.732C412.742 456.055 397.377 455.784 380.445 448.43C365.047 441.739 352.691 431.15 338.569 422.14C289.814 390.82 216.248 386.083 165.401 418.954" stroke="#2EA7E0" stroke-width="0.552088" stroke-miterlimit="10"/>
<path d="M2530.9 17.3647C2434.59 102.9 2323.48 179.767 2200.11 231.006C2152.26 251.053 2103.24 263.083 2053.3 275.157C1994.56 289.362 1934.45 291.466 1873.89 290.693C1832.49 290.179 1790.85 288.236 1749.22 287.629C1667.07 286.431 1584.62 290.864 1506.05 299.868C1460.11 305.135 1415.6 312.274 1372.85 320.969C1342.49 327.147 1311.41 334.352 1279.89 341.01C1235.3 350.418 1189.62 358.29 1142.16 364.032C1125.28 366.075 1108.25 367.88 1091.14 369.023C1019.53 373.572 943.713 344.582 876.088 328.516C858.151 324.254 840.793 320.87 824.142 319.153C756.914 312.213 687.566 321.433 622.221 345.09C610.986 349.137 599.834 353.631 588.759 358.495C549.246 375.863 510.583 398.024 472.561 422.156C449.986 436.499 428.118 454.724 403.798 461.978C388.759 466.472 373.141 466.406 355.982 459.532C340.242 453.228 327.389 443.174 312.836 434.545C262.646 404.544 188.511 399.537 136.416 431.945" stroke="#2EA7E0" stroke-width="0.552088" stroke-miterlimit="10"/>
<path d="M2525.85 19.8101C2432.15 106.4 2322.27 184.018 2199.6 235.064C2150.86 255.541 2100.95 267.118 2050.23 279.965C1990.79 295.015 1929.85 298.046 1868.42 297.941C1826.41 297.88 1784.14 296.268 1741.87 295.744C1658.47 294.706 1574.77 298.322 1495.02 305.56C1448.39 309.789 1403.21 315.597 1359.79 322.697C1328.89 327.748 1297.35 333.678 1265.4 339.033C1220.18 346.613 1173.92 352.559 1125.69 357.158C1108.57 358.792 1091.28 360.294 1073.9 361.233C1001.03 364.915 923.904 337.951 855.153 324.292C836.956 320.676 819.355 317.96 802.456 316.867C734.449 312.472 664.87 324.215 599.618 350.185C588.405 354.63 577.275 359.51 566.211 364.755C526.765 383.476 488.13 406.841 449.798 431.651C427.03 446.403 404.831 464.711 380.097 472.247C364.793 476.917 348.915 477.055 331.535 470.662C315.453 464.749 302.103 455.22 287.12 446.977C235.488 418.302 160.785 413.018 107.454 444.968" stroke="#2EA7E0" stroke-width="0.552088" stroke-miterlimit="10"/>
<path d="M2520.8 22.2617C2429.71 109.9 2321.06 188.269 2199.09 239.122C2149.45 260.024 2098.64 271.154 2047.13 284.769C1987 300.663 1925.23 304.622 1862.93 305.18C1820.32 305.577 1777.41 304.285 1734.51 303.843C1649.87 302.966 1564.92 305.77 1483.98 311.23C1436.66 314.427 1390.81 318.904 1346.73 324.409C1315.29 328.334 1283.28 332.988 1250.91 337.041C1205.04 342.788 1158.22 346.812 1109.21 350.269C1091.84 351.494 1074.29 352.692 1056.64 353.426C982.508 356.242 904.073 331.299 834.201 320.058C815.75 317.088 797.896 315.034 780.748 314.57C711.974 312.715 642.151 326.987 576.988 355.265C565.792 360.101 554.684 365.374 543.642 370.999C504.262 391.073 465.66 415.647 427.014 441.131C404.058 456.292 381.516 474.687 356.374 482.499C340.805 487.347 324.667 487.689 307.061 481.776C290.631 476.255 276.79 467.256 261.376 459.389C208.309 432.038 133.032 426.473 78.458 457.964" stroke="#2EA7E0" stroke-width="0.552088" stroke-miterlimit="10"/>
<path d="M2515.75 24.708C2427.27 113.395 2319.85 192.521 2198.59 243.175C2148.06 264.508 2096.35 275.185 2044.06 289.572C1983.22 306.312 1920.64 311.198 1857.45 312.418C1814.24 313.268 1770.7 312.307 1727.16 311.949C1641.27 311.231 1555.07 313.218 1472.95 316.912C1424.93 319.071 1378.41 322.212 1333.66 326.126C1301.69 328.92 1269.2 332.304 1236.42 335.059C1189.89 338.968 1142.51 341.077 1092.73 343.396C1075.13 344.213 1057.31 345.107 1039.4 345.637C964.002 347.586 884.264 324.658 813.26 315.835C794.55 313.511 776.452 312.12 759.051 312.285C689.509 312.959 619.444 329.77 554.369 360.361C543.189 365.595 532.104 371.254 521.084 377.261C481.77 398.687 443.195 424.464 404.245 450.622C381.096 466.191 358.223 484.675 332.667 492.763C316.833 497.787 300.436 498.339 282.609 492.901C265.831 487.778 251.482 479.331 235.654 471.817C181.091 445.907 105.306 439.95 49.4844 470.983" stroke="#2EA7E0" stroke-width="0.552088" stroke-miterlimit="10"/>
<path d="M2510.7 27.1533C2424.82 116.895 2318.63 196.766 2198.08 247.227C2146.65 268.985 2094.05 279.209 2040.98 294.37C1979.45 311.948 1916.03 317.767 1851.98 319.65C1808.15 320.958 1763.98 320.323 1719.81 320.042C1632.67 319.484 1545.22 320.655 1461.91 322.581C1413.21 323.708 1366.01 325.507 1320.61 327.832C1288.09 329.494 1255.14 331.603 1221.94 333.06C1174.77 335.13 1126.81 335.329 1076.26 336.5C1058.41 336.914 1040.34 337.499 1022.15 337.825C945.491 338.907 864.45 317.988 792.319 311.589C773.355 309.905 755.009 309.177 737.353 309.983C667.045 313.174 596.731 332.536 531.75 365.434C520.593 371.06 509.529 377.117 498.526 383.499C459.278 406.278 420.731 433.259 381.472 460.096C358.129 476.073 334.92 494.64 308.955 503.009C292.861 508.21 276.194 508.978 258.152 504.003C241.02 499.283 226.186 491.355 209.927 484.216C153.928 459.632 77.5691 453.399 20.5107 483.973" stroke="#2EA7E0" stroke-width="0.552088" stroke-miterlimit="10"/>
<path d="M2505.65 29.6045C2422.37 120.395 2317.41 201.022 2197.57 251.29C2145.25 273.478 2091.75 283.245 2037.89 299.184C1975.67 317.601 1911.42 324.348 1846.49 326.899C1802.07 328.66 1757.27 328.356 1712.45 328.157C1624.07 327.76 1535.37 328.119 1450.88 328.273C1401.48 328.362 1353.61 328.825 1307.54 329.56C1274.48 330.09 1241.06 330.923 1207.44 331.083C1159.62 331.315 1111.1 329.604 1059.78 329.626C1041.69 329.631 1023.35 329.913 1004.9 330.04C926.979 330.255 844.635 311.341 771.379 307.377C752.161 306.333 733.566 306.267 715.662 307.708C644.586 313.411 574.029 335.329 509.137 370.541C497.996 376.564 486.954 383.007 475.967 389.77C436.786 413.908 398.272 442.086 358.698 469.602C335.163 485.988 311.622 504.643 285.243 513.289C268.884 518.661 251.946 519.649 233.689 515.144C216.21 510.832 200.884 503.418 184.194 496.66C126.76 473.406 49.8322 466.886 -8.47388 497.002" stroke="#2EA7E0" stroke-width="0.552088" stroke-miterlimit="10"/>
<path d="M2500.6 32.0503C2419.93 123.89 2316.11 205.031 2197.06 255.343C2143.81 277.851 2089.45 287.264 2034.82 303.981C1971.89 323.233 1906.83 330.918 1841.02 334.137C1795.99 336.356 1750.55 336.378 1705.1 336.257C1615.48 336.019 1525.53 335.561 1439.85 333.943C1389.76 332.999 1341.22 332.11 1294.49 331.266C1260.89 330.658 1226.99 330.217 1192.96 329.09C1144.49 327.484 1095.42 323.862 1043.32 322.736C1024.98 322.338 1006.38 322.311 987.654 322.233C908.473 321.582 824.832 304.666 750.443 303.137C730.971 302.734 712.128 303.33 693.97 305.406C622.127 313.615 551.327 338.095 486.528 375.615C475.404 382.03 464.384 388.865 453.42 396.009C414.304 421.499 375.818 450.881 335.935 479.071C312.206 495.865 288.329 514.609 261.541 523.53C244.918 529.079 227.715 530.288 209.242 526.247C191.41 522.344 175.598 515.442 158.483 509.066C99.6138 487.142 22.1116 480.341 -37.4312 509.999" stroke="#2EA7E0" stroke-width="0.552088" stroke-miterlimit="10"/>
<path d="M2495.55 34.4961C2417.49 127.39 2314.89 209.276 2196.55 259.395C2142.4 282.329 2087.15 291.283 2031.73 308.779C1968.1 328.864 1902.22 337.488 1835.54 341.369C1789.9 344.041 1743.83 344.394 1697.74 344.356C1606.87 344.273 1515.68 343.009 1428.81 339.619C1378.02 337.637 1328.81 335.401 1281.42 332.977C1247.27 331.227 1212.92 329.521 1178.47 327.097C1129.34 323.647 1079.7 318.126 1026.84 315.846C1008.25 315.045 989.393 314.714 970.395 314.427C889.956 312.909 805.012 297.991 729.492 298.897C709.76 299.134 690.674 300.393 672.262 303.104C599.646 313.809 528.609 340.861 463.898 380.694C452.796 387.501 441.798 394.728 430.85 402.253C391.801 429.096 353.343 459.687 313.151 488.55C289.229 505.748 265.02 524.579 237.818 533.783C220.93 539.508 203.456 540.943 184.774 537.36C166.582 533.871 150.296 527.472 132.745 521.477C72.4401 500.878 -5.63068 493.801 -66.4211 522.995" stroke="#2EA7E0" stroke-width="0.552088" stroke-miterlimit="10"/>
<path d="M2490.5 36.9468C2415.04 130.89 2313.68 213.532 2196.05 263.452C2141.01 286.811 2084.85 295.308 2028.66 313.587C1964.33 334.506 1897.62 344.068 1830.07 348.612C1783.82 351.742 1737.12 352.421 1690.4 352.46C1598.29 352.537 1505.84 350.456 1417.79 345.299C1366.31 342.285 1316.42 338.696 1268.37 334.694C1233.68 331.806 1198.86 328.825 1163.99 325.109C1114.21 319.809 1064.01 312.395 1010.37 308.961C991.541 307.757 972.422 307.117 953.159 306.625C871.456 304.24 785.214 291.311 708.562 294.662C688.577 295.534 669.242 297.455 650.576 300.812C577.193 314.007 505.907 343.638 441.291 385.784C430.205 392.989 419.229 400.607 408.303 408.508C369.32 436.703 330.895 468.498 290.388 498.04C266.273 515.646 241.733 534.566 214.117 544.046C196.964 549.947 179.22 551.615 160.322 548.484C141.777 545.409 125.005 539.518 107.023 533.904C45.283 514.63 -33.362 507.271 -95.3892 536.013" stroke="#2EA7E0" stroke-width="0.552088" stroke-miterlimit="10"/>
<path d="M2485.45 39.3931C2412.59 134.385 2312.57 218.016 2195.54 267.505C2139.64 291.405 2082.54 299.327 2025.57 318.385C1960.54 340.138 1893.01 350.638 1824.59 355.845C1777.74 359.428 1730.41 360.432 1683.04 360.559C1589.68 360.797 1495.98 357.898 1406.75 350.97C1354.58 346.917 1304.02 341.976 1255.3 336.4C1220.07 332.364 1184.78 328.119 1149.49 323.117C1099.07 315.973 1048.3 306.659 993.892 302.071C974.818 300.465 955.434 299.515 935.901 298.819C852.939 295.568 765.394 284.625 687.61 290.428C667.371 291.94 647.783 294.519 628.874 298.516C554.717 314.195 483.194 346.409 418.666 390.864C407.602 398.46 396.643 406.471 385.734 414.752C346.817 444.3 308.419 477.299 267.604 507.514C243.295 525.529 218.418 544.537 190.399 554.293C172.987 560.366 154.966 562.27 135.859 559.587C116.961 556.932 99.7134 551.505 81.2902 546.31C18.1479 528.234 -61.0989 520.726 -124.374 549.004" stroke="#2EA7E0" stroke-width="0.552088" stroke-miterlimit="10"/>
<path d="M2480.4 41.8394C2410.15 137.886 2311.35 222.267 2195.03 271.563C2138.24 295.888 2080.25 303.353 2022.49 323.195C1956.76 345.775 1888.41 357.214 1819.11 363.094C1771.65 367.135 1723.69 368.466 1675.69 368.67C1581.08 369.068 1486.13 365.358 1395.71 356.657C1342.85 351.572 1291.62 345.273 1242.24 338.123C1206.47 332.945 1170.71 327.424 1135 321.135C1083.93 312.142 1032.59 300.935 977.418 295.193C958.101 293.183 938.457 291.924 918.654 291.025C834.427 286.906 745.58 277.94 666.675 286.199C646.176 288.347 626.345 291.582 607.182 296.225C532.247 314.383 460.492 349.187 396.052 395.954C385.005 403.949 374.074 412.346 363.181 421.003C324.331 451.903 285.966 486.105 244.835 517C220.334 535.423 195.125 554.514 166.693 564.551C149.015 570.801 130.724 572.943 111.407 570.707C92.1552 568.477 74.4222 563.541 55.5684 558.727C-9.00939 541.976 -88.8304 534.192 -153.347 562.012" stroke="#2EA7E0" stroke-width="0.552088" stroke-miterlimit="10"/>
<path d="M2475.36 44.2905C2407.71 141.386 2310.14 226.518 2194.52 275.621C2136.85 300.377 2077.95 307.372 2019.41 327.998C1952.98 351.406 1883.81 363.79 1813.64 370.332C1765.57 374.826 1716.98 376.488 1668.35 376.775C1572.49 377.332 1476.3 372.805 1384.69 362.338C1331.14 356.215 1279.24 348.557 1229.19 339.84C1192.88 333.513 1156.65 326.728 1120.53 319.148C1068.81 308.299 1016.91 295.209 960.96 288.314C941.394 285.901 921.491 284.333 901.418 283.229C815.927 278.244 725.776 271.254 645.745 281.97C624.992 284.747 604.907 288.645 585.496 293.934C509.783 314.56 437.796 351.964 373.45 401.039C362.419 409.425 351.51 418.215 340.639 427.252C301.855 459.505 263.518 494.916 222.084 526.479C197.389 545.311 171.844 564.49 143.003 574.803C125.06 581.23 106.504 583.615 86.9657 581.82C67.361 580.021 49.1421 575.576 29.8576 571.143C-36.1611 555.712 -116.545 547.652 -182.304 575.019" stroke="#2EA7E0" stroke-width="0.552088" stroke-miterlimit="10"/>
<path d="M2470.3 46.7363C2405.26 144.881 2308.93 230.764 2194.01 279.673C2135.44 304.854 2075.64 311.385 2016.32 332.801C1949.19 357.038 1879.19 370.365 1808.15 377.57C1759.48 382.522 1710.25 384.51 1660.98 384.874C1563.89 385.592 1466.44 380.253 1373.65 368.008C1319.4 360.853 1266.83 351.831 1216.12 341.546C1179.27 334.071 1142.57 326.016 1106.03 317.155C1053.66 304.457 1001.19 289.479 944.475 281.424C924.666 278.608 904.498 276.731 884.159 275.422C797.41 269.57 705.951 264.557 624.794 277.736C603.781 281.148 583.453 285.702 563.788 291.637C487.29 314.731 415.072 354.735 350.82 406.124C339.811 414.908 328.918 424.089 318.07 433.502C279.352 467.113 241.042 503.722 199.299 535.964C174.411 555.204 148.535 574.472 119.279 585.067C101.071 591.67 82.2452 594.298 62.497 592.945C42.5335 591.576 23.8343 587.617 4.11921 583.571C-63.335 569.465 -144.293 561.128 -211.295 588.031" stroke="#2EA7E0" stroke-width="0.552088" stroke-miterlimit="10"/>
<path d="M2465.26 49.1816C2402.82 148.381 2307.71 235.015 2193.51 283.725C2134.04 309.337 2073.34 315.399 2013.25 337.598C1945.41 362.663 1874.6 376.935 1802.68 384.802C1753.4 390.207 1703.55 392.525 1653.64 392.973C1555.29 393.85 1456.6 387.695 1362.63 373.683C1307.68 365.49 1254.46 355.11 1203.07 343.257C1165.69 334.633 1128.52 325.309 1091.55 315.161C1038.54 300.608 985.501 283.748 928.012 274.533C907.954 271.32 887.533 269.128 866.918 267.615C778.904 260.897 686.136 257.855 603.859 273.495C582.592 277.537 562.01 282.754 542.102 289.34C464.815 314.902 392.375 357.506 328.212 411.203C317.22 420.378 306.355 429.952 295.517 439.746C256.86 474.709 218.589 512.522 176.531 545.443C151.455 565.092 125.236 584.442 95.5727 595.319C77.0999 602.098 58.0031 604.975 38.0451 604.053C17.7283 603.12 -1.45682 599.647 -21.6025 595.976C-90.4977 583.195 -172.019 574.582 -240.263 601.027" stroke="#2EA7E0" stroke-width="0.552088" stroke-miterlimit="10"/>
<path d="M2460.21 51.6328C2400.37 151.881 2306.5 239.266 2193 287.789C2132.64 313.825 2071.03 319.418 2010.16 342.412C1941.62 368.3 1869.99 383.521 1797.2 392.056C1747.32 397.919 1696.82 400.564 1646.28 401.088C1546.69 402.126 1446.74 395.153 1351.59 379.375C1295.95 370.149 1242.06 358.401 1190 344.985C1152.08 335.213 1114.44 324.618 1077.05 313.185C1023.4 296.777 969.783 278.033 911.526 267.659C891.226 264.043 870.539 261.542 849.659 259.825C760.387 252.24 666.305 251.163 582.907 269.272C561.381 273.948 540.545 279.822 520.394 287.054C442.317 315.073 369.657 360.289 305.582 416.298C294.606 425.871 283.763 435.831 272.948 446.006C234.357 482.323 196.114 521.339 153.746 554.933C128.477 574.991 101.927 594.43 71.8494 605.582C53.1171 612.533 33.7498 615.663 13.5709 615.177C-7.09372 614.68 -26.7701 611.688 -47.341 608.403C-117.677 596.947 -199.767 588.059 -269.253 614.04" stroke="#2EA7E0" stroke-width="0.552088" stroke-miterlimit="10"/>
<path d="M2455.15 54.0786C2397.93 155.376 2305.28 243.517 2192.49 291.841C2131.24 318.308 2068.73 323.432 2007.08 347.21C1937.83 373.92 1865.39 390.091 1791.72 399.289C1741.23 405.604 1690.11 408.575 1638.92 409.187C1538.09 410.385 1436.9 402.601 1340.55 385.045C1284.22 374.781 1229.67 361.669 1176.94 346.691C1138.48 335.765 1100.37 323.906 1062.57 311.192C1008.27 292.929 954.081 272.308 895.058 260.77C874.509 256.756 853.562 253.946 832.412 252.024C741.875 243.572 646.485 244.455 561.971 265.037C540.186 270.343 519.102 276.874 498.702 284.758C419.831 315.233 346.955 363.06 282.973 421.383C272.02 431.348 261.194 441.7 250.4 452.256C211.876 489.925 173.66 530.145 130.984 564.418C105.521 584.884 78.6345 604.411 48.1482 615.84C29.1508 622.967 9.51856 626.352 -10.8756 626.296C-31.8936 626.241 -52.0559 623.729 -73.0573 620.819C-144.829 610.689 -227.493 601.518 -298.216 627.047" stroke="#2EA7E0" stroke-width="0.552088" stroke-miterlimit="10"/>
<path d="M2450.11 56.5244C2395.49 158.876 2304.08 247.762 2191.98 295.893C2129.84 322.786 2066.38 327.318 2004 352.008C1933.99 379.408 1860.78 396.655 1786.24 406.521C1735.15 413.295 1683.4 416.591 1631.58 417.281C1529.5 418.639 1427.06 410.038 1329.52 390.715C1272.5 379.419 1217.28 364.938 1163.89 348.397C1124.89 336.317 1086.31 323.194 1048.09 309.193C993.147 289.075 938.358 266.693 878.589 253.874C857.786 249.496 836.591 246.338 815.17 244.212C723.375 234.893 626.665 237.742 541.036 260.797C518.991 266.732 497.659 273.926 477.011 282.456C397.344 315.388 324.248 365.826 260.36 426.457C249.423 436.814 238.624 447.563 227.842 458.494C189.384 497.516 151.201 538.945 108.21 573.892C82.5545 594.766 55.3365 614.377 24.4361 626.086C5.17376 633.391 -14.7235 637.029 -35.333 637.404C-56.7043 637.791 -77.3525 635.759 -98.7845 633.23C-171.997 624.425 -255.224 614.978 -327.195 640.049" stroke="#2EA7E0" stroke-width="0.552088" stroke-miterlimit="10"/>
<path d="M2445.06 58.9761C2393.03 162.377 2302.86 252.014 2191.47 299.952C2128.43 327.274 2064.08 331.349 2000.92 356.817C1930.21 385.051 1856.18 403.236 1780.77 413.765C1729.06 420.992 1676.68 424.619 1624.22 425.392C1520.9 426.91 1417.21 417.497 1318.49 396.402C1260.78 384.068 1204.9 368.223 1150.83 350.12C1111.3 336.886 1072.28 322.427 1033.6 307.212C978.059 285.139 922.651 260.963 862.12 246.995C841.074 242.214 819.615 238.747 797.923 236.417C704.863 226.231 606.84 231.04 520.096 256.569C497.791 263.133 476.205 270.984 455.319 280.17C374.852 315.554 301.546 368.609 237.747 431.553C226.826 442.308 216.049 453.443 205.289 464.756C166.897 505.13 128.742 547.762 85.4419 583.383C59.5931 604.666 32.0439 624.364 0.729403 636.35C-18.798 643.831 -38.9602 647.723 -59.7905 648.524C-81.5097 649.357 -102.649 647.795 -124.512 645.653C-199.16 638.172 -282.961 628.444 -356.174 653.056" stroke="#2EA7E0" stroke-width="0.552088" stroke-miterlimit="10"/>
<path d="M2440.01 61.4214C2390.59 165.871 2301.65 256.264 2190.97 304.009C2127.04 331.757 2061.78 335.373 1997.84 361.619C1926.44 390.692 1851.58 409.811 1775.3 421.008C1722.99 428.693 1669.97 432.646 1616.87 433.496C1512.3 435.174 1407.36 424.944 1307.46 402.082C1249.06 388.716 1192.52 371.496 1137.77 351.836C1097.71 337.449 1058.21 321.731 1019.11 305.229C962.92 281.307 906.944 255.238 845.64 240.116C824.346 234.932 802.627 231.155 780.67 228.621C686.351 217.569 587.003 224.332 499.149 252.339C476.586 259.533 454.745 268.04 433.616 277.879C352.344 315.713 278.833 371.386 215.122 436.637C204.224 447.784 193.463 459.312 182.725 471.005C144.399 512.732 106.272 556.567 62.6682 592.867C36.6262 614.559 8.74019 634.346 -22.9828 646.608C-42.7752 654.265 -63.2024 658.417 -84.2481 659.642C-106.315 660.929 -127.946 659.836 -150.239 658.069C-226.328 651.913 -310.693 641.909 -385.147 666.063" stroke="#2EA7E0" stroke-width="0.552088" stroke-miterlimit="10"/>
<path d="M2434.96 63.8667C2388.15 169.371 2300.44 260.51 2190.46 308.061C2125.63 336.24 2059.47 339.392 1994.76 366.422C1922.65 396.329 1846.97 416.386 1769.81 428.245C1716.9 436.388 1663.25 440.667 1609.52 441.6C1503.71 443.439 1397.51 432.391 1296.43 407.757C1237.33 393.353 1180.13 374.77 1124.71 353.548C1084.11 338.006 1044.15 321.035 1004.62 303.236C947.799 277.47 891.243 249.501 829.177 233.231C807.64 227.644 785.656 223.558 763.429 220.82C667.845 208.9 567.178 217.623 478.22 248.104C455.391 255.927 433.302 265.092 411.93 275.582C329.851 315.862 256.137 374.157 192.514 441.722C181.632 453.266 170.9 465.18 160.178 477.254C121.918 520.339 83.8242 565.373 39.9056 602.352C13.6703 624.452 -14.5469 644.321 -46.684 656.865C-66.7359 664.693 -87.4281 669.116 -108.695 670.761C-131.109 672.495 -153.232 671.871 -175.956 670.491C-253.485 665.66 -338.419 655.38 -414.115 679.07" stroke="#2EA7E0" stroke-width="0.552088" stroke-miterlimit="10"/>
<path d="M2429.91 66.3184C2385.7 172.871 2299.22 264.767 2189.95 312.119C2124.23 340.723 2057.17 343.417 1991.68 371.226C1918.87 401.966 1842.36 422.962 1764.33 435.483C1710.81 444.079 1656.53 448.689 1602.16 449.705C1495.1 451.698 1387.66 439.845 1285.39 413.438C1225.6 398.002 1167.78 377.956 1111.64 355.27C1070.54 338.509 1030.08 320.345 990.127 301.254C932.655 273.644 875.53 243.771 812.691 226.352C790.906 220.362 768.668 215.967 746.17 213.025C649.328 200.238 547.275 210.756 457.268 243.881C434.163 252.289 411.837 262.155 390.222 273.296C307.332 316.028 233.413 376.94 169.889 446.812C159.024 458.748 148.314 471.06 137.609 483.509C99.4152 527.947 61.3487 574.184 17.1209 611.837C-9.30755 634.34 -37.8616 654.304 -70.4072 667.123C-90.7241 675.128 -111.676 679.81 -133.169 681.88C-155.926 684.072 -178.545 683.912 -201.699 682.913C-280.665 679.407 -366.167 668.846 -443.106 692.083" stroke="#2EA7E0" stroke-width="0.552088" stroke-miterlimit="10"/>
<path d="M2424.86 68.7646C2383.26 176.367 2298.01 269.013 2189.44 316.172C2122.83 345.206 2054.87 347.442 1988.6 376.03C1915.09 407.603 1837.76 429.532 1758.86 442.722C1704.73 451.776 1649.82 456.712 1594.81 457.805C1486.5 459.958 1377.81 447.288 1274.35 419.115C1213.87 402.64 1155.39 381.247 1098.58 356.982C1056.95 339.078 1016.01 319.645 975.64 299.267C917.528 269.813 859.823 238.041 796.217 219.468C774.189 213.07 751.686 208.371 728.923 205.224C630.817 191.571 527.45 204.076 436.327 239.647C412.963 248.696 390.36 259.169 368.531 271C284.735 316.012 210.711 379.712 147.276 451.898C136.433 464.231 125.739 476.929 115.056 489.754C76.9288 535.544 38.8953 582.991 -5.64718 621.317C-32.2689 644.229 -61.1542 664.28 -94.1138 677.376C-114.696 685.558 -135.907 690.505 -157.621 692.989C-180.72 695.634 -203.836 695.937 -227.416 695.319C-307.822 693.138 -393.892 682.301 -472.074 705.08" stroke="#2EA7E0" stroke-width="0.552088" stroke-miterlimit="10"/>
<path d="M2419.81 71.2104C2380.81 179.867 2296.79 273.258 2188.93 320.224C2121.43 349.684 2052.57 351.462 1985.51 380.827C1911.3 413.24 1833.16 436.102 1753.37 449.954C1698.64 459.461 1643.09 464.723 1587.45 465.904C1477.9 468.217 1367.96 454.73 1263.32 424.784C1202.15 407.278 1143 384.532 1085.52 358.688C1043.35 339.647 1001.94 318.944 961.153 297.269C902.395 265.971 844.122 232.299 779.748 212.573C757.471 205.771 734.709 200.764 711.676 197.412C612.311 182.892 507.624 197.39 415.386 235.402C391.763 245.085 368.906 256.221 346.834 268.698C262.248 316.211 188.003 382.472 124.657 456.971C113.83 469.697 103.164 482.787 92.4975 495.993C54.4365 543.136 16.4308 591.786 -28.4209 630.791C-55.2358 654.111 -84.4579 674.246 -117.826 687.623C-138.673 695.981 -160.138 701.193 -182.078 704.097C-205.52 707.2 -229.133 707.967 -253.143 707.73C-334.985 706.869 -421.624 695.761 -501.047 718.076" stroke="#2EA7E0" stroke-width="0.552088" stroke-miterlimit="10"/>
<path d="M2414.76 73.6611C2378.37 183.367 2295.58 277.514 2188.42 324.287C2120.03 354.177 2050.26 355.491 1982.43 385.635C1907.52 418.882 1828.55 442.683 1747.9 457.203C1692.56 467.168 1636.38 472.755 1580.1 474.014C1469.31 476.487 1358.12 462.188 1252.29 430.47C1190.42 411.926 1130.61 387.833 1072.45 360.41C1029.75 340.226 987.869 318.253 946.656 295.286C887.257 262.144 828.404 226.568 763.263 205.693C740.743 198.488 717.721 193.177 694.417 189.616C593.788 174.23 487.787 190.72 394.435 231.178C370.551 241.502 347.447 253.3 325.126 266.412C239.745 316.425 165.285 385.254 102.027 462.066C91.2167 475.184 80.5725 488.666 69.9282 502.253C31.9335 550.748 -6.04473 600.602 -51.2056 640.281C-78.2137 664.009 -107.767 684.232 -141.549 697.885C-162.661 706.421 -184.375 711.942 -206.552 715.221C-230.331 718.826 -254.446 720.008 -278.887 720.157C-362.169 720.621 -449.377 709.236 -530.043 731.094" stroke="#2EA7E0" stroke-width="0.552088" stroke-miterlimit="10"/>
<path d="M2409.71 76.1074C2375.92 186.862 2294.37 281.76 2187.92 328.34C2118.62 358.655 2047.97 359.511 1979.35 390.439C1903.73 424.519 1823.95 449.259 1742.42 464.441C1576.36 495.369 1402.63 486.646 1241.26 436.146C1132.7 402.176 1030.45 350.556 932.175 293.294C872.129 258.308 812.708 220.832 746.8 198.804C625.633 158.308 489.83 174.12 373.505 226.938C257.18 279.756 159.129 367.301 79.4241 467.146C7.08946 557.749 -57.8803 664.391 -165.245 708.138C-288.035 758.169 -430.717 710.573 -559 744.09" stroke="#2EA7E0" stroke-width="0.552088" stroke-miterlimit="10"/>
<path d="M2153.38 776.205C2154.74 636.223 2105.24 496.291 2016.17 388.297C1990.83 357.573 1961.11 328.522 1923.64 315.046C1815.35 276.112 1699.72 361.222 1608.68 409.547C1498.8 467.858 1390.18 528.969 1275.78 578.177C1211.55 605.803 1136.12 629.25 1073.99 597.185C1011.08 564.711 987.146 489.097 961.137 423.25C930.833 346.52 889.101 272.607 827.841 217.354C766.581 162.101 683.768 127.22 601.761 136.213C537.542 143.258 479.026 175.842 425.589 212.153C285.187 307.565 165.909 433.877 78.6843 579.513" stroke="#2EA7E0" stroke-width="0.552088" stroke-miterlimit="10"/>
<path d="M2156.89 770.153C2158.09 646.436 2114.57 525.352 2037.41 421.504C2030.24 411.859 2022.86 402.374 2015.17 393.149C1989.87 362.845 1960.4 334.164 1923.45 320.582C1816.6 281.257 1702.74 361.917 1611.82 408.508C1531.22 449.815 1451.18 493.43 1368.3 532.91C1339.55 546.662 1310.55 559.907 1281.18 572.401C1217.47 599.497 1142.93 622.63 1081.27 592.061C1018.83 561.105 994.113 488.417 967.387 425.148C936.238 351.427 894.025 280.385 832.881 227.263C811.593 208.768 787.77 192.647 762.324 179.855C714.712 155.905 661.414 143.594 608.452 149.192C544.835 155.916 486.744 187.181 433.65 221.836C326.158 291.945 231.171 378.971 152.863 479.219C129.493 509.132 107.614 540.214 87.3467 572.384" stroke="#2EA7E0" stroke-width="0.552088" stroke-miterlimit="10"/>
<path d="M2160.4 764.108C2161.56 644.515 2115.72 530.138 2036.36 425.921C2029.16 416.463 2021.83 407.1 2014.16 398.013C1988.89 368.134 1959.68 339.817 1923.26 326.125C1817.84 286.402 1705.76 362.618 1614.96 407.481C1535.2 446.889 1455.87 489.35 1373.03 527.996C1344.49 541.423 1315.7 554.386 1286.57 566.637C1223.37 593.209 1149.72 616.021 1088.53 586.948C1026.57 557.505 1001.08 487.743 973.636 427.058C941.648 356.346 898.944 288.175 837.922 237.189C816.672 219.44 792.965 203.965 767.691 191.692C720.415 168.703 667.608 156.855 615.149 162.188C552.133 168.598 494.473 198.538 441.716 231.53C334.864 298.261 240.501 380.506 161.967 476.144C138.531 504.682 116.508 534.401 96.0144 565.268" stroke="#2EA7E0" stroke-width="0.552088" stroke-miterlimit="10"/>
<path d="M2163.91 758.058C2165.03 642.588 2116.9 534.92 2035.32 430.332C2028.09 421.052 2020.8 411.815 2013.16 402.872C1987.93 373.412 1958.97 345.471 1923.08 331.669C1819.1 291.554 1708.81 363.325 1618.12 406.449C1539.22 443.964 1460.48 485.072 1377.78 523.083C1349.42 536.124 1320.88 548.866 1291.98 560.874C1229.29 586.916 1156.53 609.413 1095.81 581.837C1034.33 553.906 1008.05 487.076 979.897 428.969C947.064 361.266 903.88 295.965 842.979 247.111C821.762 230.107 798.177 215.277 773.074 203.518C726.129 181.49 673.825 170.106 621.857 175.179C559.443 181.274 502.213 209.889 449.793 241.22C343.576 304.578 249.843 382.036 171.082 473.07C147.579 500.232 125.419 528.588 104.699 558.157" stroke="#2EA7E0" stroke-width="0.552088" stroke-miterlimit="10"/>
<path d="M2167.42 752.012C2168.49 640.666 2118.1 539.695 2034.28 434.748C2027 425.65 2019.76 416.535 2012.14 407.735C1986.94 378.7 1958.25 351.124 1922.89 337.211C1820.34 296.704 1711.86 364.043 1621.25 405.422C1543.23 441.053 1465.14 480.931 1382.51 518.169C1354.34 530.867 1326.03 543.344 1297.36 555.109C1235.19 580.627 1163.33 602.81 1103.07 576.724C1042.06 550.312 1015.01 486.407 986.136 430.878C952.458 366.185 908.793 303.749 848.009 257.031C826.83 240.767 803.367 226.589 778.429 215.343C731.822 194.281 680.014 183.361 628.537 188.164C566.72 193.939 509.921 221.234 457.842 250.903C352.266 310.882 259.157 383.559 180.164 469.983C156.59 495.771 134.291 522.762 113.344 551.029" stroke="#2EA7E0" stroke-width="0.552088" stroke-miterlimit="10"/>
<path d="M2170.92 745.962C2171.96 638.741 2119.33 544.461 2033.23 439.161C2025.93 430.239 2018.72 421.256 2011.14 412.594C1985.98 383.979 1957.53 356.773 1922.7 342.755C1821.59 301.856 1714.93 364.767 1624.39 404.396C1547.25 438.161 1469.81 476.797 1387.24 513.262C1359.28 525.618 1331.2 537.83 1302.76 549.352C1241.11 574.34 1170.13 596.208 1110.34 571.618C1049.81 546.719 1021.98 485.746 992.385 432.795C957.869 371.105 913.718 311.545 853.049 266.964C831.91 251.445 808.562 237.913 783.795 227.181C737.525 207.079 686.208 196.623 635.234 201.166C574.018 206.627 517.65 232.602 465.908 260.61C360.973 317.215 268.487 385.106 189.268 466.925C165.627 491.339 143.185 516.966 122.012 543.93" stroke="#2EA7E0" stroke-width="0.552088" stroke-miterlimit="10"/>
<path d="M2174.43 739.91C2175.43 636.813 2120.59 549.208 2032.19 443.566C2024.87 434.821 2017.69 425.965 2010.13 417.446C1985.01 389.257 1956.82 362.414 1922.52 348.286C1822.84 306.996 1718.02 365.484 1627.54 403.352C1551.3 435.262 1474.48 472.644 1391.98 508.331C1364.21 520.345 1336.36 532.292 1308.16 543.566C1247.02 568.029 1176.94 589.577 1117.62 566.483C1057.55 543.096 1028.95 485.055 998.635 434.683C963.274 376.001 918.643 319.313 858.09 276.863C836.989 262.089 813.763 249.203 789.162 238.989C743.222 219.849 692.408 209.856 641.925 214.134C581.311 219.28 525.368 243.931 473.969 270.276C369.674 323.503 277.812 386.612 198.366 463.822C174.654 486.861 152.074 511.125 130.68 536.786" stroke="#2EA7E0" stroke-width="0.552088" stroke-miterlimit="10"/>
<path d="M2177.94 733.865C2178.9 634.892 2121.88 553.956 2031.15 447.983C2023.8 439.409 2016.65 430.686 2009.12 422.311C1984.04 394.541 1956.09 368.068 1922.33 353.835C1824.08 312.147 1721.11 366.235 1630.68 402.331C1555.35 432.397 1479.16 468.521 1396.71 503.429C1369.14 515.106 1341.51 526.777 1313.56 537.813C1252.93 561.746 1183.73 582.98 1124.88 561.382C1065.29 539.514 1035.91 484.393 1004.88 436.604C968.684 380.932 923.567 327.114 863.136 286.801C842.074 272.767 818.963 260.532 794.533 250.832C748.931 232.652 698.613 223.128 648.622 227.142C588.61 231.967 533.097 255.299 482.029 279.982C378.374 329.836 287.136 388.159 207.459 460.764C183.68 482.428 160.956 505.328 139.337 529.687" stroke="#2EA7E0" stroke-width="0.552088" stroke-miterlimit="10"/>
<path d="M2181.45 727.814C2182.37 632.965 2123.2 558.681 2030.11 452.393C2022.75 443.99 2015.62 435.406 2008.12 427.168C1983.07 399.823 1955.38 373.721 1922.15 359.377C1825.33 317.297 1724.24 366.985 1633.83 401.298C1559.42 429.537 1483.83 464.385 1401.46 498.509C1374.09 509.844 1346.68 521.25 1318.96 532.043C1258.84 555.452 1190.54 576.365 1132.15 556.269C1073.04 535.913 1042.88 483.724 1011.13 438.514C974.089 385.85 928.487 334.903 868.176 296.721C847.153 283.432 824.164 271.844 799.9 262.657C754.634 245.443 704.813 236.378 655.313 240.132C595.903 244.642 540.821 266.649 490.09 289.676C387.075 336.151 296.461 389.693 216.557 457.688C192.707 477.977 169.845 499.509 147.999 522.575" stroke="#2EA7E0" stroke-width="0.552088" stroke-miterlimit="10"/>
<path d="M2184.96 721.763C2185.83 631.038 2124.53 563.391 2029.06 456.805C2021.69 448.573 2014.58 440.121 2007.11 432.027C1982.1 405.102 1954.66 379.369 1921.96 364.915C1826.58 322.443 1727.37 367.747 1636.98 400.265C1563.51 426.694 1488.51 460.261 1406.19 493.596C1379.02 504.599 1351.84 515.729 1324.36 526.28C1264.75 549.158 1197.34 569.757 1139.42 551.157C1080.79 532.314 1049.85 483.057 1017.38 440.424C979.494 390.769 933.411 342.694 873.217 306.648C852.232 294.104 829.359 283.162 805.266 274.489C760.331 258.235 711.008 249.639 662.01 253.123C603.202 257.313 548.545 278 498.156 299.366C395.782 342.467 305.791 391.222 225.661 454.613C201.745 473.528 178.739 493.695 156.672 515.459" stroke="#2EA7E0" stroke-width="0.552088" stroke-miterlimit="10"/>
<path d="M2188.47 715.718C2189.31 629.118 2125.9 568.095 2028.02 461.216C2020.63 453.15 2013.55 444.836 2006.1 436.88C1981.13 410.38 1953.95 385.012 1921.77 370.453C1827.82 327.589 1730.51 368.521 1640.11 399.228C1567.6 423.862 1493.19 456.132 1410.92 488.672C1383.95 499.338 1357 510.198 1329.74 520.505C1270.65 542.859 1204.14 563.137 1146.68 546.034C1088.52 528.704 1056.8 482.378 1023.62 442.324C984.894 395.678 938.325 350.473 878.247 316.558C857.3 304.755 834.543 294.458 810.621 286.304C766.024 271.011 717.197 262.879 668.69 266.103C610.478 269.979 556.258 289.34 506.205 309.044C404.472 348.767 315.105 392.735 234.743 451.522C210.761 469.062 187.611 487.866 165.318 508.326" stroke="#2EA7E0" stroke-width="0.552088" stroke-miterlimit="10"/>
<path d="M2191.97 709.667C2192.77 627.19 2127.29 572.771 2026.98 465.627C2019.58 457.727 2012.51 449.556 2005.1 441.738C1980.15 415.657 1953.23 390.659 1921.59 375.99C1829.08 332.734 1733.67 369.315 1643.26 398.195C1571.71 421.051 1497.88 452.007 1415.66 483.758C1388.9 494.093 1362.16 504.676 1335.15 514.741C1276.57 536.565 1210.95 556.534 1153.97 540.921C1096.28 525.109 1063.79 481.704 1029.88 444.239C990.31 400.597 943.261 358.268 883.304 326.484C862.396 315.426 839.76 305.775 816.004 298.14C771.743 283.808 723.413 276.139 675.398 279.098C617.788 282.659 563.992 300.696 514.282 318.744C413.189 355.093 324.447 394.275 243.858 448.451C219.804 464.617 196.517 482.057 174.002 501.215" stroke="#2EA7E0" stroke-width="0.552088" stroke-miterlimit="10"/>
<path d="M2195.48 703.622C2196.24 625.27 2128.71 577.431 2025.93 470.045C2018.53 462.31 2011.49 454.26 2004.09 446.603C1979.23 420.898 1952.51 396.319 1921.4 381.539C1830.32 337.886 1736.84 370.133 1646.41 397.174C1575.83 418.275 1502.56 447.906 1420.4 478.85C1393.84 488.854 1367.33 499.156 1340.54 508.978C1282.48 530.277 1217.75 549.926 1161.23 535.809C1104.02 521.51 1070.75 481.037 1036.13 446.15C995.714 405.516 948.185 366.059 888.344 336.412C867.475 326.099 844.955 317.094 821.37 309.972C777.441 296.606 729.608 289.401 682.095 292.095C625.086 295.336 571.721 312.053 522.348 328.439C421.896 361.41 333.777 395.811 252.962 445.383C228.841 460.173 205.411 476.25 182.67 494.11" stroke="#2EA7E0" stroke-width="0.552088" stroke-miterlimit="10"/>
<path d="M2198.99 697.571C2199.71 623.343 2130.16 582.063 2024.89 474.455C2017.48 466.881 2010.46 458.98 2003.08 451.461C1978.27 426.175 1951.79 401.966 1921.21 387.076C1831.57 343.031 1740.03 370.966 1649.55 396.136C1579.96 415.498 1507.25 443.787 1425.13 473.931C1398.79 483.603 1372.49 493.629 1345.94 503.208C1288.39 523.978 1224.55 543.312 1168.5 530.691C1111.76 517.905 1077.72 480.363 1042.38 448.054C1001.12 410.43 953.11 373.843 893.385 346.327C872.549 336.753 850.156 328.4 826.731 321.792C783.138 309.386 735.802 302.645 688.781 305.075C632.374 308.001 579.44 323.393 530.403 338.117C430.591 367.715 343.096 397.329 262.05 442.291C237.857 455.706 214.288 470.42 191.322 486.977" stroke="#2EA7E0" stroke-width="0.552088" stroke-miterlimit="10"/>
<path d="M2202.5 691.519C2203.18 621.415 2131.64 586.672 2023.85 478.866C2016.43 471.451 2009.42 463.695 2002.07 456.319C1977.29 431.453 1951.08 407.613 1921.03 392.619C1832.81 348.181 1743.23 371.822 1652.69 395.109C1584.09 412.753 1511.94 439.684 1429.87 469.017C1403.72 478.358 1377.65 488.108 1351.34 497.444C1294.3 517.689 1231.35 536.703 1175.77 525.578C1119.5 514.31 1084.68 479.694 1048.63 449.964C1006.52 415.348 958.023 381.632 898.42 356.253C877.623 347.425 855.346 339.718 832.092 333.623C788.836 322.178 741.997 315.901 695.467 318.07C639.662 320.682 587.152 334.749 538.453 347.817C439.281 374.035 352.41 398.868 271.137 439.226C246.878 451.267 223.166 464.617 199.978 479.871" stroke="#2EA7E0" stroke-width="0.552088" stroke-miterlimit="10"/>
<path d="M2206.01 685.474C2206.65 619.494 2133.14 591.26 2022.81 483.277C2015.39 476.023 2008.39 468.409 2001.07 461.177C1976.33 436.731 1950.36 413.261 1920.84 398.156C1834.07 353.327 1746.44 372.699 1655.84 394.071C1588.24 410.015 1516.63 435.577 1434.6 464.098C1408.67 473.113 1382.81 482.582 1356.74 491.674C1300.21 511.389 1238.15 530.089 1183.04 520.46C1127.25 510.705 1091.65 479.015 1054.88 451.869C1011.93 420.262 962.948 389.417 903.466 366.168C882.707 358.086 860.552 351.024 837.464 345.448C794.539 334.964 748.196 329.156 702.169 331.061C646.965 333.352 594.887 346.1 546.524 357.506C447.993 380.351 361.746 400.398 280.246 436.145C255.916 446.806 232.065 458.792 208.651 472.749" stroke="#2EA7E0" stroke-width="0.552088" stroke-miterlimit="10"/>
<path d="M2209.51 679.423C2210.11 617.567 2134.67 595.815 2021.76 487.688C2014.34 480.589 2007.35 473.124 2000.06 466.036C1975.35 442.014 1949.61 418.97 1920.65 403.699C1835.21 358.649 1749.66 373.61 1658.97 393.044C1592.39 407.315 1521.32 431.486 1439.33 459.184C1413.61 467.874 1387.97 477.061 1362.13 485.911C1306.12 505.101 1244.95 523.48 1190.3 515.348C1134.98 507.105 1098.61 478.347 1061.13 453.779C1017.34 425.181 967.872 397.207 908.506 376.095C887.786 368.752 865.747 362.342 842.83 357.28C800.242 347.762 754.396 342.412 708.86 344.052C654.253 346.028 602.605 357.451 554.584 367.195C456.694 386.662 371.07 401.927 289.339 433.07C264.942 442.356 240.949 452.979 217.308 465.638" stroke="#2EA7E0" stroke-width="0.552088" stroke-miterlimit="10"/>
<path d="M2213.03 673.378C2213.58 615.646 2136.23 600.348 2020.72 492.106C2013.31 485.16 2006.32 477.851 1999.06 470.9C1974.39 447.298 1948.9 424.624 1920.47 409.248C1836.47 363.8 1752.89 374.549 1662.13 392.023C1596.57 404.644 1526.03 427.406 1444.08 454.282C1418.56 462.652 1393.14 471.551 1367.53 480.158C1312.04 498.819 1251.76 516.883 1197.58 510.253C1142.74 503.528 1105.59 477.696 1067.38 455.706C1022.75 430.117 972.803 405.014 913.553 386.033C892.871 379.435 870.948 373.672 848.202 369.122C805.95 360.565 760.602 355.685 715.557 357.059C661.552 358.715 610.334 368.824 562.651 376.907C465.4 393 380.395 403.479 298.443 430.012C273.974 437.924 249.848 447.182 225.981 458.539" stroke="#2EA7E0" stroke-width="0.552088" stroke-miterlimit="10"/>
<path d="M2216.53 667.328C2217.05 613.715 2137.81 604.848 2019.67 496.517C2012.26 489.727 2005.28 482.566 1998.04 475.759C1973.41 452.582 1948.17 430.272 1920.27 414.786C1837.7 368.946 1756.12 375.516 1665.26 390.986C1600.73 401.978 1530.71 423.316 1448.81 449.358C1423.5 457.407 1398.29 466.014 1372.92 474.384C1317.94 492.52 1258.56 510.27 1204.84 505.13C1150.47 499.918 1112.54 477.018 1073.62 457.606C1028.15 435.02 977.716 412.788 918.582 395.943C897.94 390.091 876.138 384.973 853.557 380.938C811.637 373.341 766.785 368.924 722.237 370.034C668.834 371.375 618.047 380.159 570.7 386.58C474.09 399.295 389.709 404.987 307.531 426.921C282.996 433.458 258.726 441.353 234.633 451.406" stroke="#2EA7E0" stroke-width="0.552088" stroke-miterlimit="10"/>
<path d="M2220.04 661.277C2220.52 611.787 2139.43 609.308 2018.63 500.922C2011.23 494.281 2004.25 487.28 1997.04 480.611C1972.45 457.854 1947.46 435.914 1920.1 420.323C1838.96 374.086 1759.37 376.509 1668.41 389.953C1604.91 399.338 1535.42 419.241 1453.55 444.444C1428.45 452.173 1403.46 460.493 1378.33 468.614C1323.86 486.22 1265.37 503.655 1212.12 500.012C1158.22 496.313 1119.51 476.338 1079.87 459.51C1033.56 439.933 982.646 420.572 923.634 405.864C903.03 400.752 881.344 396.285 858.934 392.768C817.351 386.132 772.996 382.179 728.945 383.029C676.143 384.056 625.782 391.515 578.777 396.274C482.808 405.615 399.05 406.521 316.64 423.845C292.039 429.007 267.626 435.539 243.306 444.289" stroke="#2EA7E0" stroke-width="0.552088" stroke-miterlimit="10"/>
<path d="M2223.55 655.231C2223.98 609.866 2141.07 613.742 2017.59 505.339C2010.19 498.846 2003.21 492.001 1996.03 485.475C1971.47 463.143 1946.74 441.567 1919.91 425.866C1840.21 379.231 1762.61 377.547 1671.55 388.92C1609.08 396.721 1540.12 415.166 1458.28 439.525C1433.39 446.934 1408.62 454.966 1383.72 462.845C1329.77 479.926 1272.16 497.041 1219.39 494.893C1165.97 492.713 1126.48 475.664 1086.12 461.415C1038.96 444.847 987.565 428.356 928.674 415.779C908.109 411.412 886.544 407.592 864.301 404.588C823.054 398.918 779.196 395.429 735.637 396.009C683.437 396.716 633.506 402.855 586.838 405.958C491.509 411.92 408.375 408.044 325.738 420.759C301.066 424.546 276.514 429.714 251.974 437.162" stroke="#2EA7E0" stroke-width="0.552088" stroke-miterlimit="10"/>
<path d="M2227.05 649.18C2227.45 607.939 2142.73 618.136 2016.54 509.75C2009.16 503.401 2002.17 496.715 1995.02 490.333C1970.49 468.426 1946.06 447.165 1919.72 431.409C1841.54 384.222 1765.86 378.623 1674.69 387.893C1613.25 394.137 1544.82 411.103 1463.01 434.616C1438.33 441.711 1413.78 449.451 1389.12 457.086C1335.67 473.638 1278.96 490.438 1226.65 489.786C1173.71 489.118 1133.44 475.001 1092.37 463.33C1044.38 449.771 992.49 436.151 933.715 425.711C913.188 422.089 891.739 418.915 869.667 416.425C828.752 411.716 785.396 408.69 742.328 409.01C690.724 409.402 641.224 414.217 594.893 415.657C500.204 418.247 417.694 409.584 334.831 417.695C310.092 420.107 285.397 423.906 260.631 430.061" stroke="#2EA7E0" stroke-width="0.552088" stroke-miterlimit="10"/>
<path d="M2230.56 643.135C2230.92 606.018 2144.42 622.498 2015.5 514.167C2008.12 507.967 2001.14 501.441 1994.02 495.197C1969.52 473.715 1945.34 452.819 1919.53 436.952C1842.79 389.367 1769.11 379.739 1677.84 386.866C1617.43 391.581 1549.53 407.051 1467.76 429.703C1443.29 436.482 1418.95 443.93 1394.52 451.323C1341.59 467.35 1285.76 483.83 1233.92 484.674C1181.45 485.519 1140.41 474.334 1098.62 465.241C1049.78 454.69 997.415 443.941 938.755 435.632C918.262 432.75 896.94 430.222 875.033 428.251C834.455 424.502 791.591 421.94 749.025 422.001C698.023 422.078 648.953 425.568 602.959 425.347C508.91 424.557 427.024 411.114 343.93 414.614C319.119 415.652 294.286 418.087 269.298 422.94" stroke="#2EA7E0" stroke-width="0.552088" stroke-miterlimit="10"/>
<path d="M2234.07 637.084C2234.39 604.091 2146.13 626.81 2014.46 518.573C2007.09 512.516 2000.1 506.151 1993.01 500.05C1968.55 478.994 1944.63 458.461 1919.35 442.49C1844.04 394.513 1772.35 380.893 1680.98 385.829C1621.6 389.036 1554.23 402.988 1472.49 424.784C1448.23 431.249 1424.1 438.399 1399.91 445.554C1347.49 461.051 1292.57 477.216 1241.19 479.557C1189.19 481.92 1147.38 473.655 1104.87 467.146C1055.18 459.604 1002.33 451.726 943.796 445.554C923.341 443.417 902.135 441.534 880.4 440.082C840.152 437.294 797.791 435.202 755.716 434.992C705.316 434.749 656.677 436.919 611.019 435.036C517.611 430.874 436.349 412.644 353.028 411.539C328.151 411.203 303.175 412.274 277.961 415.824" stroke="#2EA7E0" stroke-width="0.552088" stroke-miterlimit="10"/>
<path d="M2237.58 631.033C2237.86 602.165 2147.88 631.083 2013.42 522.984C2006.06 517.066 1999.05 510.882 1992 504.909C1967.53 484.321 1943.9 464.109 1919.16 448.033C1845.28 399.664 1775.59 382.097 1684.12 384.802C1625.77 386.524 1558.94 398.952 1477.22 419.871C1453.18 426.026 1429.26 432.878 1405.31 439.79C1353.41 454.763 1299.37 470.607 1248.46 474.444C1196.94 478.32 1154.35 472.987 1111.12 469.056C1060.59 464.518 1007.26 459.516 948.837 455.475C928.42 454.083 907.331 452.847 885.766 451.908C845.856 450.086 803.991 448.452 762.407 447.983C712.609 447.425 664.395 448.27 619.08 444.731C526.312 437.19 445.674 414.178 362.127 408.464C337.178 406.753 312.063 406.46 286.623 408.707" stroke="#2EA7E0" stroke-width="0.552088" stroke-miterlimit="10"/>
<path d="M2241.09 624.987C2241.33 600.243 2149.65 635.317 2012.37 527.4C2005.03 521.625 1998.02 515.608 1991 509.766C1966.57 489.604 1943.19 469.762 1918.98 453.569C1846.54 404.809 1778.82 383.344 1687.27 383.763C1629.93 384.028 1563.65 394.904 1481.96 414.951C1458.13 420.797 1434.43 427.351 1410.71 434.014C1359.32 448.457 1306.18 463.993 1255.73 469.32C1204.69 474.709 1161.31 472.307 1117.37 470.955C1066 469.425 1012.18 467.294 953.877 465.384C933.499 464.733 912.531 464.147 891.132 463.722C851.558 462.861 810.185 461.696 769.099 460.956C719.902 460.084 672.119 459.604 627.14 454.403C535.013 443.488 454.999 415.691 371.219 405.372C346.204 402.286 320.946 400.63 295.285 401.579" stroke="#2EA7E0" stroke-width="0.552088" stroke-miterlimit="10"/>
<path d="M2244.6 618.936C2244.8 598.316 2151.45 639.502 2011.34 531.811C2004 526.174 1996.99 520.322 1989.99 514.625C1965.6 494.882 1942.47 475.41 1918.79 459.112C1847.79 409.96 1782.03 384.641 1690.41 382.736C1634.08 381.566 1568.35 390.88 1486.7 410.037C1463.07 415.58 1439.59 421.83 1416.1 428.25C1365.23 442.169 1312.97 457.384 1263 464.213C1212.43 471.115 1168.28 471.645 1123.62 472.87C1071.41 474.35 1017.11 475.09 958.918 475.316C938.579 475.41 917.726 475.471 896.498 475.559C857.256 475.658 816.385 474.957 775.795 473.958C727.201 472.765 679.842 470.966 635.206 464.103C543.719 449.81 464.329 417.225 380.323 402.302C355.242 397.841 329.84 394.822 303.953 394.468" stroke="#2EA7E0" stroke-width="0.552088" stroke-miterlimit="10"/>
<path d="M2248.11 612.891C2248.27 596.395 2153.27 643.643 2010.29 536.228C2002.97 530.73 1995.94 525.043 1988.98 519.489C1964.62 500.172 1941.76 481.064 1918.6 464.656C1849.03 415.106 1785.23 385.989 1693.56 381.71C1638.22 379.126 1573.07 386.861 1491.43 405.129C1468.03 410.369 1444.75 416.315 1421.5 422.493C1371.14 435.881 1319.78 450.782 1270.27 459.107C1220.17 467.527 1175.24 470.977 1129.87 474.786C1076.81 479.275 1022.03 482.886 963.958 485.243C943.658 486.082 922.927 486.789 901.859 487.391C862.954 488.451 822.58 488.213 782.481 486.949C734.483 485.442 687.561 482.317 643.261 473.798C552.415 456.131 473.649 418.761 389.416 399.228C364.263 393.392 338.724 389.009 312.61 387.352" stroke="#2EA7E0" stroke-width="0.552088" stroke-miterlimit="10"/>
<path d="M2251.62 606.841C2251.74 594.468 2155.11 647.728 2009.25 540.634C2001.94 535.268 1994.92 529.758 1987.98 524.342C1963.65 505.444 1941.04 486.706 1918.42 470.193C1850.28 420.251 1788.41 387.38 1696.71 380.672C1642.35 376.697 1577.78 382.842 1496.17 400.205C1472.97 405.141 1449.92 410.777 1426.9 416.718C1377.05 429.582 1326.58 444.162 1277.54 453.984C1227.92 463.916 1182.22 470.298 1136.12 476.686C1082.22 484.183 1026.96 490.665 969.01 495.159C948.748 496.738 928.133 498.096 907.237 499.216C868.668 501.243 828.785 501.469 789.184 499.94C741.787 498.112 695.295 493.668 651.327 483.488C561.121 462.447 482.979 420.29 398.515 396.153C373.295 388.942 347.612 383.19 321.278 380.236" stroke="#2EA7E0" stroke-width="0.552088" stroke-miterlimit="10"/>
<path d="M2255.12 600.789C2255.2 592.541 2156.98 651.764 2008.21 545.045C2000.91 539.811 1993.88 534.473 1986.97 529.2C1962.69 510.727 1940.33 492.359 1918.23 475.73C1851.53 425.396 1791.56 388.821 1699.85 379.639C1646.46 374.295 1582.49 378.839 1500.91 395.291C1477.92 399.929 1455.08 405.256 1432.3 410.954C1382.97 423.287 1333.39 437.553 1284.82 448.871C1235.67 460.316 1189.18 469.63 1142.37 478.596C1087.63 489.102 1031.88 498.454 974.05 505.079C953.827 507.404 933.334 509.408 912.603 511.042C874.365 514.029 834.985 514.719 795.88 512.93C749.085 510.788 703.019 505.019 659.393 493.176C569.828 468.757 492.309 421.819 407.619 393.072C382.327 384.487 356.506 377.37 329.945 373.119" stroke="#2EA7E0" stroke-width="0.552088" stroke-miterlimit="10"/>
<path d="M2258.63 594.744C2258.67 590.62 2158.87 655.75 2007.16 549.462C1999.87 544.36 1992.84 539.198 1985.96 534.064C1961.71 516.011 1939.6 498.013 1918.04 481.279C1852.77 430.553 1794.67 390.322 1702.98 378.612C1650.54 371.916 1587.21 374.947 1505.63 390.377C1482.87 394.745 1460.23 399.735 1437.69 405.19C1388.87 416.999 1340.18 430.945 1292.08 443.759C1243.4 456.722 1196.14 468.962 1148.61 480.506C1093.03 494.021 1036.8 506.244 979.08 515.006C958.896 518.076 938.518 520.726 917.958 522.873C880.057 526.821 841.174 527.975 802.561 525.921C756.367 523.464 710.732 516.375 667.443 502.871C578.518 475.079 501.623 423.354 416.706 390.002C391.349 380.042 365.384 371.562 338.602 366.008" stroke="#2EA7E0" stroke-width="0.552088" stroke-miterlimit="10"/>
<path d="M2262.14 588.693C2262.14 588.693 2160.79 659.681 2006.12 553.873C1851.45 448.065 1798.2 333.904 1510.38 385.464C1311.48 421.096 1123.85 508.491 923.336 534.699C840.837 545.481 754.375 540.402 675.514 512.56C587.23 481.389 510.959 424.883 425.81 386.921C400.381 375.587 374.284 365.743 347.27 358.886" stroke="#2EA7E0" stroke-width="0.552088" stroke-miterlimit="10"/>
</svg>
