<svg width="1920" height="1080" viewBox="0 0 1920 1080" fill="none" xmlns="http://www.w3.org/2000/svg">
<path opacity="0.54" d="M-124.157 560.7C-128.295 491.893 -59.9437 435.558 8.70585 429.556C77.373 423.528 143.642 454.635 203.054 489.646C262.483 524.631 320.663 564.977 387.784 580.668C526.71 613.118 664.996 533.859 783.547 454.639C902.099 375.419 1032.86 289.101 1174.53 305.989C1285.61 319.246 1378.39 393.928 1481.78 436.657C1662.26 511.259 1881.89 481.026 2035.33 360.384" stroke="url(#paint0_linear_307_178)" stroke-width="1.56225" stroke-miterlimit="10"/>
<path opacity="0.54" d="M-127.269 579.037C-131.46 510.309 -63.6908 453.815 4.74758 447.098C10.8618 446.482 16.9757 446.209 23.063 446.149C85.0467 445.825 144.932 473.658 199.221 504.825C209.705 510.839 220.153 517.02 230.602 523.202C279.653 552.244 329.091 581.392 384.412 594.013C402.334 598.117 420.276 600.359 438.149 600.988C558.724 605.3 676.508 536.044 779.091 466.341C786.542 461.265 794.036 456.179 801.575 451.085C913.18 375.672 1034.37 301.202 1165.83 311.908C1203.43 314.975 1239.54 323.976 1274.97 338.25C1316.8 355.083 1356.82 378.739 1396.35 401.53C1423.34 417.087 1450.26 432.291 1478.13 445.15C1491.24 451.195 1504.6 456.685 1518.2 461.575C1604.83 492.749 1701.06 499.183 1792.68 482.688C1884.53 466.149 1971.85 427.051 2044.67 368.731" stroke="url(#paint1_linear_307_178)" stroke-width="1.56225" stroke-miterlimit="10"/>
<path opacity="0.54" d="M-130.383 597.378C-134.635 528.685 -67.4659 472.058 0.761466 464.627C6.8669 463.966 12.9632 463.606 19.0417 463.501C80.8761 462.542 140.877 489.572 195.413 520.025C205.942 525.916 216.408 531.956 226.901 538.015C276.128 566.448 325.744 595.103 381.047 607.406C398.97 611.395 416.903 613.594 434.785 614.151C555.405 617.996 672.774 548.502 774.67 478.11C782.067 472.998 789.526 467.851 796.986 462.703C907.7 386.505 1027.04 312.172 1157.2 317.955C1195.23 319.63 1232.25 326.295 1268.9 340.121C1312.21 356.453 1353.25 381.672 1392.88 406.21C1419.92 422.948 1446.65 439.519 1474.49 453.692C1487.6 460.355 1500.94 466.444 1514.67 471.907C1601.96 506.708 1701.73 514.32 1795.99 496.868C1890.44 479.398 1979.62 437.711 2054.01 377.038" stroke="url(#paint2_linear_307_178)" stroke-width="1.56225" stroke-miterlimit="10"/>
<path opacity="0.54" d="M-133.524 615.699C-137.829 547.085 -71.2683 490.28 -3.2432 482.179C2.827 481.456 8.90577 481.008 14.9755 480.858C76.7045 479.255 136.794 505.466 191.561 535.231C202.107 540.981 212.661 546.889 223.172 552.806C272.577 580.632 322.343 608.775 377.655 620.779C395.56 624.679 413.475 626.789 431.348 627.303C551.969 630.689 668.95 560.974 770.176 489.867C777.538 484.693 784.918 479.493 792.325 474.31C902.166 397.298 1019.73 323.042 1148.48 323.945C1186.99 324.219 1224.87 328.584 1262.75 341.979C1307.56 357.785 1349.61 384.593 1389.31 410.904C1416.43 428.842 1442.94 446.788 1470.76 462.249C1483.83 469.537 1497.23 476.235 1511.04 482.254C1599.01 520.681 1702.3 529.498 1799.18 511.089C1896.27 492.662 1987.27 448.411 2063.26 385.404" stroke="url(#paint3_linear_307_178)" stroke-width="1.56225" stroke-miterlimit="10"/>
<path opacity="0.54" d="M-136.653 634.064C-140.993 565.504 -75.0324 508.565 -7.24484 499.731C-1.16575 498.938 4.86008 498.454 10.9122 498.217C72.5096 495.952 132.697 521.387 187.694 550.465C198.301 556.065 208.856 561.858 219.437 567.67C269.019 594.887 318.98 622.51 374.283 634.24C392.188 638.026 410.095 640.092 427.951 640.518C548.598 643.463 665.156 573.465 765.747 501.704C773.057 496.495 780.401 491.232 787.746 485.97C896.698 408.172 1012.59 333.79 1139.83 330.017C1178.81 328.845 1217.59 330.944 1256.68 343.919C1303.01 359.215 1346.04 387.595 1385.84 415.651C1412.99 434.798 1439.33 454.084 1467.13 470.877C1480.19 478.765 1493.64 486.071 1507.55 492.691C1596.18 534.769 1703.02 544.739 1802.52 525.399C1902.21 506.042 1995.06 459.201 2072.65 393.859" stroke="url(#paint4_linear_307_178)" stroke-width="1.56225" stroke-miterlimit="10"/>
<path opacity="0.54" d="M-139.766 652.405C-144.186 583.906 -78.7901 526.781 -11.2313 517.259C-5.18747 516.404 0.84727 515.85 6.8906 515.568C68.3562 512.642 128.641 537.301 183.886 565.665C194.538 571.141 205.137 576.811 215.736 582.481C265.494 609.09 315.632 636.22 370.918 647.633C388.806 651.33 406.695 653.308 424.586 653.681C545.277 656.159 661.403 585.949 761.325 513.472C768.599 508.201 775.847 502.912 783.156 497.588C891.217 419.004 1005.49 344.346 1131.19 336.019C1170.71 333.41 1210.27 333.244 1250.6 345.744C1298.41 360.541 1342.46 390.483 1382.38 420.304C1409.61 440.65 1435.76 461.303 1463.51 479.392C1476.58 487.897 1490 495.803 1504.02 502.996C1593.33 548.701 1703.69 559.876 1805.82 539.578C1908.12 519.246 2002.82 469.86 2082.01 402.183" stroke="url(#paint5_linear_307_178)" stroke-width="1.56225" stroke-miterlimit="10"/>
<path opacity="0.54" d="M-142.879 670.744C-147.334 602.298 -82.5639 545.023 -15.1898 534.803C-9.18115 533.887 -3.13757 533.261 2.87054 532.918C64.2132 529.374 124.605 553.187 180.035 580.872C190.731 586.225 201.366 591.728 212.009 597.274C261.927 623.301 312.233 649.893 367.528 661.006C385.416 664.589 403.314 666.497 421.169 666.808C541.888 668.845 657.617 598.369 756.851 525.203C764.072 519.897 771.285 514.546 778.515 509.169C885.686 429.799 998.437 354.732 1122.48 342.011C1162.52 337.921 1202.9 335.508 1244.45 347.604C1293.77 361.874 1338.83 393.405 1378.82 424.999C1406.11 446.527 1432.07 468.546 1459.78 487.95C1472.81 497.081 1486.29 505.596 1500.43 513.362C1590.41 562.692 1704.31 575.046 1809.05 553.818C1913.96 532.555 2010.51 480.579 2091.29 410.567" stroke="url(#paint6_linear_307_178)" stroke-width="1.56225" stroke-miterlimit="10"/>
<path opacity="0.54" d="M-146.018 689.065C-150.553 620.681 -86.3386 563.264 -19.2196 552.338C-13.2198 551.378 -7.21137 550.691 -1.19438 550.277C60.0166 546.071 120.506 569.108 176.184 596.079C186.898 601.291 197.603 606.688 208.264 612.094C258.385 637.53 308.859 663.584 364.119 674.406C381.99 677.901 399.897 679.738 417.735 679.96C538.48 681.556 653.795 610.842 752.359 536.961C759.519 531.575 766.678 526.189 773.855 520.777C880.136 440.62 991.37 364.96 1113.76 348.003C1154.38 342.379 1195.52 337.797 1238.33 349.437C1289.15 363.18 1335.21 396.3 1375.3 429.641C1402.66 452.368 1428.41 475.737 1456.11 496.472C1469.15 506.22 1482.61 515.335 1496.86 523.675C1587.5 576.657 1704.94 590.19 1812.31 568.005C1919.85 545.785 2018.23 491.244 2100.58 418.881" stroke="url(#paint7_linear_307_178)" stroke-width="1.56225" stroke-miterlimit="10"/>
<path opacity="0.54" d="M-149.147 707.43C-153.735 639.125 -90.1289 581.531 -23.1946 569.908C-17.2123 568.859 -11.2126 568.128 -5.23087 567.653C55.8748 562.803 116.427 585.002 172.361 611.303C183.137 616.365 193.86 621.621 204.565 626.903C254.863 651.731 305.514 677.292 360.757 687.797C378.636 691.221 396.499 692.952 414.355 693.148C535.118 694.259 650.045 623.323 747.922 548.753C755.028 543.332 762.153 537.884 769.268 532.392C874.632 451.431 984.403 375.099 1105.11 354.029C1146.3 346.846 1188.23 340.113 1232.22 351.314C1284.52 364.556 1331.6 399.239 1371.79 434.326C1399.2 458.235 1424.74 482.997 1452.41 505.046C1465.43 515.395 1478.93 525.144 1493.26 534.04C1584.58 590.648 1705.53 605.341 1815.53 582.244C1925.69 559.093 2025.93 501.936 2109.87 427.265" stroke="url(#paint8_linear_307_178)" stroke-width="1.56225" stroke-miterlimit="10"/>
<path opacity="0.54" d="M-152.264 725.773C-156.913 657.503 -93.8805 599.793 -27.1838 587.438C-21.2103 586.345 -15.2283 585.526 -9.28174 584.989C51.6745 579.504 112.342 600.9 168.506 626.514C179.326 631.452 190.093 636.585 200.843 641.744C251.318 665.964 302.119 691.013 357.371 701.218C375.25 704.527 393.105 706.214 410.943 706.322C531.733 706.992 646.245 635.818 743.479 560.55C750.532 555.093 757.595 549.566 764.658 544.039C869.131 462.291 977.447 385.101 1096.43 360.086C1138.2 351.299 1180.89 342.442 1226.12 353.212C1279.93 365.928 1328.03 402.174 1368.32 439.051C1395.79 464.186 1421.14 490.271 1448.8 513.651C1461.78 524.626 1475.33 534.984 1489.78 544.453C1581.76 604.714 1706.24 620.586 1818.88 596.531C1931.64 572.45 2033.76 512.721 2119.27 435.697" stroke="url(#paint9_linear_307_178)" stroke-width="1.56225" stroke-miterlimit="10"/>
<path opacity="0.54" d="M-155.375 744.109C-160.078 675.919 -97.6361 618.005 -31.1858 604.988C-25.2475 603.833 -19.3007 602.952 -13.3188 602.362C47.5322 596.233 108.289 616.81 164.683 641.736C175.521 646.533 186.332 651.542 197.126 656.578C247.76 680.216 298.774 704.719 353.991 714.632C371.852 717.854 389.689 719.452 407.536 719.49C528.353 719.719 642.451 648.306 739.015 572.323C746.033 566.804 753.043 561.241 760.026 555.661C863.609 473.127 970.488 394.938 1087.74 366.093C1130.1 355.675 1173.54 344.747 1220.01 355.087C1275.31 367.276 1324.42 405.111 1364.79 443.761C1392.34 470.096 1417.48 497.529 1445.09 522.224C1458.09 533.816 1471.62 544.774 1486.18 554.816C1578.84 618.703 1706.86 635.753 1822.12 610.741C1937.52 585.703 2041.46 523.411 2128.57 444.052" stroke="url(#paint10_linear_307_178)" stroke-width="1.56225" stroke-miterlimit="10"/>
<path opacity="0.54" d="M-158.514 762.431C-163.279 694.276 -101.437 636.228 -35.1711 622.515C-29.2504 621.272 -23.3124 620.346 -17.3658 619.695C43.3535 612.904 104.208 632.704 160.805 656.925C171.688 661.599 182.561 666.459 193.372 671.353C244.184 694.383 295.374 718.392 350.6 728.006C368.462 731.112 386.29 732.667 404.145 732.634C525.007 732.396 638.664 660.726 734.567 584.071C741.532 578.517 748.48 572.875 755.428 567.233C858.121 483.913 963.519 404.619 1079.07 372.076C1122.02 359.983 1166.21 347.001 1213.9 356.893C1270.69 368.582 1320.82 407.98 1361.28 448.376C1388.89 475.893 1413.84 504.693 1441.42 530.702C1454.37 542.92 1467.96 554.486 1482.64 565.102C1575.97 632.615 1707.52 650.844 1825.4 624.901C1943.41 598.932 2049.2 534.05 2137.91 452.356" stroke="url(#paint11_linear_307_178)" stroke-width="1.56225" stroke-miterlimit="10"/>
<path opacity="0.54" d="M-161.645 780.798C-166.462 712.722 -105.202 654.515 -39.1741 640.069C-33.2622 638.782 -27.3417 637.768 -21.3862 637.046C39.2013 629.594 100.171 648.592 156.999 672.125C167.943 676.649 178.816 681.394 189.671 686.165C240.66 708.586 292.001 732.084 347.236 741.398C365.08 744.417 382.934 745.874 400.755 745.779C521.644 745.1 634.886 673.192 730.119 595.821C737.049 590.206 743.945 584.528 750.813 578.833C852.633 494.7 956.524 414.169 1070.4 378.06C1113.95 364.266 1158.9 349.301 1207.81 358.745C1266.09 369.907 1317.22 410.894 1357.81 453.054C1385.49 481.771 1410.24 511.964 1437.8 539.26C1450.77 552.096 1464.36 564.28 1479.13 575.451C1573.11 646.616 1708.21 666.024 1828.71 639.124C1949.35 612.198 2056.97 544.752 2147.25 460.706" stroke="url(#paint12_linear_307_178)" stroke-width="1.56225" stroke-miterlimit="10"/>
<path opacity="0.54" d="M-164.76 799.139C-169.639 731.098 -108.979 672.758 -43.1351 657.615C-37.2584 656.266 -31.3468 655.208 -25.4088 654.398C35.0558 646.328 96.1142 664.506 153.172 687.352C164.16 691.752 175.069 696.33 185.951 701.004C237.117 722.817 288.652 745.795 343.852 754.818C361.679 757.748 379.516 759.117 397.345 758.952C518.234 757.814 631.106 685.658 725.652 607.599C732.503 601.93 739.363 596.191 746.178 590.461C847.108 505.541 949.474 423.685 1061.73 384.116C1105.84 368.559 1151.56 351.628 1201.72 360.643C1261.5 371.278 1313.64 413.854 1354.3 457.787C1382.02 487.712 1406.6 519.245 1434.12 547.856C1447.07 561.291 1460.69 574.066 1475.55 585.837C1570.22 660.628 1708.84 681.214 1831.96 653.384C1955.21 625.527 2064.68 555.491 2156.56 469.111" stroke="url(#paint13_linear_307_178)" stroke-width="1.56225" stroke-miterlimit="10"/>
<path opacity="0.54" d="M-167.897 817.457C-172.829 749.495 -112.778 690.978 -47.1629 675.146C-41.3214 673.736 -35.4009 672.608 -29.4982 671.735C30.8347 663.004 92.0085 680.379 149.296 702.537C160.302 706.797 171.282 711.269 182.226 715.793C233.577 737.042 285.281 759.482 340.463 768.187C358.29 771.003 376.118 772.328 393.939 772.119C514.855 770.54 627.313 698.145 721.215 619.389C728.03 613.658 734.837 607.883 741.574 602.1C841.613 516.394 942.453 433.098 1053.07 390.14C1097.77 372.793 1144.23 353.95 1195.6 362.517C1256.87 372.651 1310 416.772 1350.79 462.469C1378.59 493.594 1402.95 526.477 1430.46 556.419C1443.38 570.48 1457.05 583.863 1472.02 596.208C1567.36 674.625 1709.51 696.416 1835.26 667.629C1961.14 638.815 2072.43 566.216 2165.91 477.501" stroke="url(#paint14_linear_307_178)" stroke-width="1.56225" stroke-miterlimit="10"/>
<path opacity="0.54" d="M-171.01 835.797C-176.003 767.871 -116.525 709.238 -51.1482 692.674C-45.2978 691.193 -39.4124 690.003 -33.5185 689.086C26.709 679.711 87.9541 696.293 145.463 717.719C156.513 721.856 167.51 726.186 178.499 730.587C230.027 751.228 281.881 773.157 337.073 781.562C354.882 784.289 372.692 785.526 390.522 785.246C511.482 783.2 623.526 710.567 716.74 631.121C723.503 625.355 730.231 619.527 736.949 613.655C836.099 527.164 935.344 442.304 1044.37 396.106C1089.6 376.935 1136.88 356.188 1189.5 364.324C1252.27 373.932 1306.4 419.642 1347.28 467.086C1375.13 499.392 1399.31 533.642 1426.79 564.898C1439.71 579.576 1453.36 593.559 1468.45 606.478C1564.45 688.547 1710.15 711.49 1838.51 681.772C1967 652.028 2080.14 576.838 2175.22 485.789" stroke="url(#paint15_linear_307_178)" stroke-width="1.56225" stroke-miterlimit="10"/>
<path opacity="0.54" d="M-174.142 854.164C-179.189 786.317 -120.301 727.48 -55.1265 710.245C-49.3114 708.702 -43.4613 707.451 -37.5585 706.463C22.5373 696.426 83.8801 712.232 141.619 732.971C152.731 736.958 163.773 741.165 174.779 745.425C226.484 765.457 278.532 786.866 333.689 794.98C351.498 797.593 369.3 798.786 387.112 798.418C508.099 795.931 619.728 723.058 712.273 642.897C719.001 637.069 725.675 631.206 732.315 625.282C830.574 538.003 928.197 451.562 1035.68 402.116C1081.44 381.076 1129.55 358.514 1183.38 366.203C1247.65 375.284 1302.79 422.583 1343.79 471.791C1371.72 505.296 1395.67 540.921 1423.13 573.465C1436.01 588.77 1449.71 603.361 1464.89 616.835C1561.57 702.53 1710.79 726.679 1841.78 696.004C1972.9 665.302 2087.87 587.549 2184.55 494.166" stroke="url(#paint16_linear_307_178)" stroke-width="1.56225" stroke-miterlimit="10"/>
<path opacity="0.54" d="M-177.256 872.504C-182.339 804.71 -124.078 745.722 -59.1315 727.799C-53.3252 726.212 -47.4926 724.872 -41.5985 723.841C18.3479 713.169 79.8237 728.146 137.793 748.197C148.949 752.06 160.008 756.126 171.059 760.263C222.941 779.687 275.166 800.602 330.306 808.399C348.097 810.924 365.908 812.046 383.729 811.607C504.743 808.679 615.957 735.568 707.832 654.691C714.507 648.828 721.12 642.886 727.707 636.926C825.075 548.861 920.988 460.741 1027.01 408.171C1073.27 385.218 1122.21 360.84 1177.25 368.107C1243 376.688 1299.16 425.55 1340.24 476.531C1368.22 511.218 1391.98 548.21 1419.43 582.085C1432.32 598.007 1446.03 613.217 1461.33 627.264C1558.66 716.611 1711.43 741.912 1845.04 710.306C1978.77 678.674 2095.59 598.331 2193.84 502.595" stroke="url(#paint17_linear_307_178)" stroke-width="1.56225" stroke-miterlimit="10"/>
<path opacity="0.54" d="M-180.394 890.824C-185.555 823.091 -127.85 763.961 -63.115 745.323C-57.3262 743.648 -51.5025 742.264 -45.6437 741.171C14.1974 729.855 75.7447 744.038 133.944 763.402C145.118 767.124 156.265 771.058 167.316 775.08C219.375 793.896 271.751 814.3 326.926 821.814C344.7 824.251 362.511 825.258 380.323 824.775C501.355 821.362 612.182 748.03 703.369 666.464C710.008 660.54 716.569 654.562 723.076 648.548C819.554 559.697 913.766 469.829 1018.32 414.178C1065.07 389.294 1114.85 363.145 1171.15 369.956C1238.4 378.01 1295.59 428.434 1336.75 481.188C1364.78 517.101 1388.38 555.433 1415.74 590.632C1428.62 607.153 1442.34 622.98 1457.75 637.601C1555.78 730.592 1712.05 757.08 1848.3 724.491C1984.65 691.928 2103.31 608.995 2203.16 510.924" stroke="url(#paint18_linear_307_178)" stroke-width="1.56225" stroke-miterlimit="10"/>
<path opacity="0.54" d="M-183.507 909.163C-188.703 841.483 -131.624 782.202 -67.1004 762.85C-61.3469 761.113 -55.5319 759.685 -49.6907 758.504C10.0187 746.526 71.6814 759.907 130.11 778.583C141.329 782.182 152.494 785.975 163.633 789.864C215.851 808.098 268.439 827.956 323.597 835.153C341.371 837.475 359.173 838.438 376.95 837.893C498.009 834.04 608.395 760.451 698.965 678.205C705.525 672.227 712.077 666.205 718.549 660.13C814.137 570.493 906.551 478.849 1009.72 420.171C1056.91 393.321 1107.6 365.409 1165.12 371.816C1233.88 379.344 1292.06 431.357 1333.32 485.857C1361.44 522.97 1384.81 562.651 1412.15 599.163C1425.01 616.329 1438.76 632.747 1454.28 647.941C1552.99 744.558 1712.79 772.225 1851.66 738.705C1990.63 705.184 2111.15 619.706 2212.57 519.283" stroke="url(#paint19_linear_307_178)" stroke-width="1.56225" stroke-miterlimit="10"/>
<path opacity="0.54" d="M-186.638 927.532C-191.914 859.914 -135.418 800.474 -71.1046 780.407C-65.3599 778.626 -59.5625 777.109 -53.73 775.884C5.85642 763.288 67.6081 775.849 126.258 793.794C137.539 797.243 148.73 800.938 159.887 804.687C212.283 822.313 265.047 841.677 320.187 848.556C337.944 850.79 355.728 851.665 373.514 851.05C494.6 846.755 604.589 772.901 694.472 689.966C700.997 683.926 707.469 677.851 713.888 671.741C808.559 581.3 899.149 487.862 1000.99 426.192C1048.61 397.376 1100.22 367.746 1158.95 373.661C1229.19 380.689 1288.4 434.265 1329.76 490.555C1357.93 528.85 1381.12 569.898 1408.44 607.742C1421.29 625.507 1435.07 642.56 1450.68 658.31C1550.05 758.579 1713.39 787.425 1854.88 752.947C1996.47 718.496 2118.85 630.401 2221.85 527.67" stroke="url(#paint20_linear_307_178)" stroke-width="1.56225" stroke-miterlimit="10"/>
<path opacity="0.54" d="M-189.752 945.87C-195.063 878.305 -139.149 818.705 -75.0822 797.976C-69.3727 796.133 -63.5663 794.546 -57.7691 793.259C1.6856 780.002 63.5526 791.76 122.415 809.044C133.74 812.369 144.967 815.897 156.168 819.523C208.767 836.558 261.655 855.393 316.805 861.973C334.562 864.091 352.337 864.922 370.132 864.237C491.262 859.474 600.819 785.408 690.032 701.758C696.504 695.683 702.941 689.546 709.281 683.383C803.079 592.129 891.765 496.845 992.332 432.218C1040.35 401.375 1092.91 370.044 1152.86 375.555C1224.6 382.056 1284.81 437.221 1326.27 495.258C1354.52 534.753 1377.48 577.176 1404.78 616.307C1417.61 634.672 1431.4 652.342 1447.12 668.666C1547.17 772.56 1714.02 802.567 1858.15 767.177C2002.37 731.769 2126.58 641.111 2231.18 536.045" stroke="url(#paint21_linear_307_178)" stroke-width="1.56225" stroke-miterlimit="10"/>
<path opacity="0.54" d="M-192.891 964.193C-198.282 896.689 -142.949 836.929 -79.0938 815.486C-73.3754 813.572 -67.622 811.95 -61.8424 810.574C-2.5194 796.656 59.4454 807.638 118.556 824.208C129.898 827.392 141.196 830.815 152.414 834.299C205.19 850.726 258.256 869.067 313.388 875.329C331.127 877.36 348.912 878.12 366.689 877.346C487.846 872.143 597.006 797.812 685.532 713.473C691.969 707.336 698.326 701.146 704.613 694.947C797.521 602.907 884.223 505.724 983.594 438.194C1031.97 405.331 1085.49 372.317 1146.71 377.372C1219.98 383.364 1281.17 440.1 1322.72 499.883C1351 540.586 1373.79 584.35 1401.09 624.813C1413.9 643.822 1427.72 662.083 1443.56 678.98C1544.28 786.5 1714.65 817.712 1861.41 781.365C2008.24 745.026 2134.29 651.778 2240.47 544.36" stroke="url(#paint22_linear_307_178)" stroke-width="1.56225" stroke-miterlimit="10"/>
<path opacity="0.54" d="M-196.004 982.533C-201.43 915.082 -146.724 855.171 -83.0529 833.031C-77.3698 831.056 -71.6339 829.345 -65.8365 827.943C-6.61885 813.38 55.4349 823.543 114.757 839.452C126.144 842.513 137.477 845.767 148.722 849.154C201.658 865 254.935 882.795 310.032 888.766C327.772 890.682 345.521 891.38 363.307 890.536C484.465 884.874 593.237 810.322 681.093 725.267C687.477 719.095 693.799 712.843 700.024 706.565C792.042 613.738 876.743 514.682 974.952 444.196C1023.65 409.252 1078.2 374.591 1140.62 379.224C1215.36 384.715 1277.57 443.014 1319.25 504.562C1347.61 546.464 1370.19 591.577 1397.44 633.354C1410.24 652.962 1424.09 671.814 1440.02 689.311C1541.4 800.484 1715.32 832.849 1864.7 795.57C2014.13 758.257 2142.04 662.463 2249.81 552.71" stroke="url(#paint23_linear_307_178)" stroke-width="1.56225" stroke-miterlimit="10"/>
<path opacity="0.54" d="M-199.134 1000.9C-204.64 933.508 -150.489 873.455 -87.0738 850.608C-81.4259 848.571 -75.6811 846.79 -69.919 845.327C-10.8508 830.129 51.3184 839.489 110.862 854.665C122.293 857.603 133.67 860.735 144.977 863.972C198.09 879.209 251.518 896.493 306.624 902.164C324.346 903.991 342.104 904.62 359.899 903.705C481.101 897.576 589.441 822.811 676.627 737.04C682.976 730.806 689.219 724.502 695.391 718.188C786.518 624.575 869.139 523.593 966.274 450.247C1015.27 413.249 1070.89 376.932 1134.53 381.117C1210.77 386.082 1273.99 445.97 1315.74 509.29C1344.15 552.375 1366.55 598.854 1393.77 641.945C1406.56 662.197 1420.43 681.64 1436.47 699.71C1538.53 814.509 1715.97 848.079 1867.97 809.843C2020.02 771.599 2149.78 673.215 2259.15 561.128" stroke="url(#paint24_linear_307_178)" stroke-width="1.56225" stroke-miterlimit="10"/>
<path opacity="0.54" d="M-202.247 1019.23C-207.788 951.898 -154.264 891.694 -91.0327 868.151C-85.3759 866.043 -79.684 864.226 -73.8954 862.666C-14.9324 846.824 47.3257 855.364 107.099 869.853C118.566 872.623 129.97 875.658 141.321 878.772C194.61 893.401 248.215 910.191 303.33 915.562C321.035 917.301 338.793 917.815 356.561 916.882C477.791 910.312 585.734 835.282 672.259 748.841C678.554 742.571 684.744 736.231 690.855 729.838C781.092 635.439 861.589 532.539 957.685 456.282C1006.95 417.167 1063.63 379.264 1128.51 383.019C1206.25 387.457 1270.48 448.934 1312.32 514.001C1340.81 558.285 1363 606.157 1390.2 650.536C1402.98 671.388 1416.88 691.466 1433.02 710.092C1535.73 828.543 1716.73 863.265 1871.39 824.09C2026.04 784.916 2157.65 683.941 2268.61 569.52" stroke="url(#paint25_linear_307_178)" stroke-width="1.56225" stroke-miterlimit="10"/>
<path opacity="0.54" d="M-205.387 1037.56C-211.008 970.282 -158.021 909.909 -95.0455 885.66C-89.424 883.491 -83.7232 881.604 -77.9698 879.981C-19.1385 863.477 43.2173 871.242 103.221 885.043C114.731 887.69 126.197 890.575 137.549 893.574C191.015 907.594 244.815 923.864 299.895 928.945C317.599 930.569 335.349 931.039 353.099 930.018C474.356 923.007 581.884 847.738 667.74 760.581C673.974 754.232 680.111 747.857 686.186 741.402C775.533 646.216 853.861 541.408 948.946 462.256C998.457 421.052 1056.23 381.51 1122.33 384.818C1201.56 388.755 1266.8 451.795 1308.74 518.608C1337.29 564.074 1359.29 613.313 1386.46 659.006C1399.21 680.458 1413.12 701.153 1429.37 720.352C1532.76 842.429 1717.29 878.33 1874.57 838.224C2031.85 798.093 2165.28 694.555 2277.85 577.799" stroke="url(#paint26_linear_307_178)" stroke-width="1.56225" stroke-miterlimit="10"/>
<path opacity="0.54" d="M-208.5 1055.9C-214.156 988.675 -161.796 928.152 -99.031 903.188C-93.4182 900.975 -87.7351 899 -82.0169 897.315C-23.3086 880.194 39.1362 887.138 99.3876 900.226C110.942 902.749 122.426 905.493 133.839 908.342C187.483 921.754 241.433 937.513 296.522 942.293C314.209 943.83 331.967 944.229 349.727 943.137C471.01 935.685 578.115 860.134 663.309 772.305C669.49 765.921 675.592 759.484 681.588 752.976C770.045 657.004 846.134 550.278 940.295 468.215C990.002 424.885 1048.93 383.784 1116.25 386.644C1196.98 390.054 1263.25 454.657 1305.27 523.287C1333.88 569.979 1355.68 620.54 1382.84 667.565C1395.58 689.661 1409.52 710.947 1425.89 730.72C1529.95 856.423 1718 893.528 1877.9 852.466C2037.81 811.403 2173.08 705.275 2287.25 586.185" stroke="url(#paint27_linear_307_178)" stroke-width="1.56225" stroke-miterlimit="10"/>
<path opacity="0.54" d="M-211.632 1074.26C-217.368 1007.1 -165.59 946.421 -103.027 920.786C-97.4497 918.511 -91.7752 916.492 -86.0481 914.737C-27.4715 896.954 35.0886 903.096 95.5523 915.522C107.151 917.922 118.697 920.516 130.11 923.251C183.939 936.099 238.057 951.32 293.129 955.783C310.816 957.204 328.539 957.542 346.308 956.379C467.609 948.443 574.309 872.696 658.833 784.152C664.979 777.706 671.001 771.216 676.945 764.673C764.511 667.914 838.317 559.28 931.58 474.322C981.484 428.868 1041.56 386.163 1110.13 388.593C1192.35 391.477 1259.62 457.669 1301.75 528.045C1330.43 575.936 1352.02 627.847 1379.14 676.186C1391.87 698.881 1405.84 720.802 1422.29 741.131C1527.02 870.486 1718.62 908.744 1881.14 866.751C2043.67 824.731 2180.77 716.04 2296.51 594.597" stroke="url(#paint28_linear_307_178)" stroke-width="1.56225" stroke-miterlimit="10"/>
<path opacity="0.54" d="M-214.772 1092.59C-220.542 1025.48 -169.364 964.662 -107.039 938.295C-101.479 935.931 -95.8135 933.868 -90.1217 932.051C-31.6768 913.607 30.9812 918.972 91.6661 930.667C103.3 932.9 114.873 935.396 126.374 937.999C180.38 950.239 234.693 964.94 289.73 969.112C307.399 970.445 325.131 970.712 342.882 969.461C464.21 961.084 570.513 885.072 654.35 795.839C660.443 789.358 666.43 782.806 672.294 776.209C758.97 678.664 830.449 568.13 922.877 480.243C972.905 432.654 1034.19 388.382 1103.97 390.364C1187.68 392.747 1255.97 460.502 1298.19 532.624C1326.92 581.698 1348.33 634.975 1375.39 684.654C1388.13 707.967 1402.08 730.488 1418.65 751.39C1524.05 884.371 1719.18 923.834 1884.32 880.883C2049.46 837.933 2188.41 726.652 2305.75 602.874" stroke="url(#paint29_linear_307_178)" stroke-width="1.56225" stroke-miterlimit="10"/>
<path opacity="0.54" d="M-217.883 1110.93C-223.707 1043.9 -173.137 982.904 -110.997 955.84C-105.446 953.432 -99.8243 951.263 -94.1148 949.42C-35.7752 930.332 26.9718 934.877 87.869 945.911C99.5475 948.02 111.164 950.393 122.683 952.855C176.866 964.487 231.33 978.676 286.375 982.548C304.054 983.811 321.742 983.972 339.51 982.695C460.865 973.876 566.754 897.626 649.947 807.695C656.005 801.152 661.913 794.547 667.742 787.889C753.545 689.531 822.661 577.15 914.254 486.334C964.408 436.611 1026.91 390.744 1097.93 392.296C1183.14 394.152 1252.44 463.496 1294.75 537.365C1323.57 587.638 1344.74 642.291 1371.81 693.275C1384.51 717.214 1398.52 740.343 1415.2 761.819C1521.28 898.426 1719.94 939.067 1887.69 895.187C2055.47 851.279 2196.27 737.452 2315.18 611.322" stroke="url(#paint30_linear_307_178)" stroke-width="1.56225" stroke-miterlimit="10"/>
<path opacity="0.54" d="M-220.996 1129.27C-227.405 1056.3 -167.541 990.278 -98.1615 966.753C-28.7993 943.255 47.1495 953.069 118.956 967.648C190.763 982.227 263.095 1001.4 336.12 995.84C466.307 985.889 578.231 898.606 663.1 799.471C748.013 700.326 814.714 586.063 905.541 492.326C955.794 440.451 1019.55 393.052 1091.79 394.156C1178.5 395.486 1248.8 466.418 1291.22 542.078C1333.64 617.737 1359.09 703.159 1411.6 772.185C1518.34 912.444 1720.53 954.264 1890.92 909.426C2061.3 864.588 2203.96 748.172 2324.47 619.707" stroke="url(#paint31_linear_307_178)" stroke-width="1.56225" stroke-miterlimit="10"/>
<defs>
<linearGradient id="paint0_linear_307_178" x1="2026.98" y1="294.667" x2="-121.423" y2="590.546" gradientUnits="userSpaceOnUse">
<stop stop-color="#7ED4EF"/>
<stop offset="0.2294" stop-color="#66BFE6"/>
<stop offset="0.711" stop-color="#298BD0"/>
<stop offset="1" stop-color="#0169C2"/>
</linearGradient>
<linearGradient id="paint1_linear_307_178" x1="2037.17" y1="309.184" x2="-124.816" y2="606.934" gradientUnits="userSpaceOnUse">
<stop stop-color="#7ED4EF"/>
<stop offset="0.2294" stop-color="#66BFE6"/>
<stop offset="0.711" stop-color="#298BD0"/>
<stop offset="1" stop-color="#0169C2"/>
</linearGradient>
<linearGradient id="paint2_linear_307_178" x1="2047.35" y1="323.701" x2="-128.211" y2="623.321" gradientUnits="userSpaceOnUse">
<stop stop-color="#7ED4EF"/>
<stop offset="0.2294" stop-color="#66BFE6"/>
<stop offset="0.711" stop-color="#298BD0"/>
<stop offset="1" stop-color="#0169C2"/>
</linearGradient>
<linearGradient id="paint3_linear_307_178" x1="2057.27" y1="336.275" x2="-131.873" y2="637.764" gradientUnits="userSpaceOnUse">
<stop stop-color="#7ED4EF"/>
<stop offset="0.2294" stop-color="#66BFE6"/>
<stop offset="0.711" stop-color="#298BD0"/>
<stop offset="1" stop-color="#0169C2"/>
</linearGradient>
<linearGradient id="paint4_linear_307_178" x1="2066.73" y1="345.532" x2="-135.989" y2="648.892" gradientUnits="userSpaceOnUse">
<stop stop-color="#7ED4EF"/>
<stop offset="0.2294" stop-color="#66BFE6"/>
<stop offset="0.711" stop-color="#298BD0"/>
<stop offset="1" stop-color="#0169C2"/>
</linearGradient>
<linearGradient id="paint5_linear_307_178" x1="2076.16" y1="354.595" x2="-140.135" y2="659.825" gradientUnits="userSpaceOnUse">
<stop stop-color="#7ED4EF"/>
<stop offset="0.2294" stop-color="#66BFE6"/>
<stop offset="0.711" stop-color="#298BD0"/>
<stop offset="1" stop-color="#0169C2"/>
</linearGradient>
<linearGradient id="paint6_linear_307_178" x1="2085.56" y1="363.445" x2="-144.309" y2="670.545" gradientUnits="userSpaceOnUse">
<stop stop-color="#7ED4EF"/>
<stop offset="0.2294" stop-color="#66BFE6"/>
<stop offset="0.711" stop-color="#298BD0"/>
<stop offset="1" stop-color="#0169C2"/>
</linearGradient>
<linearGradient id="paint7_linear_307_178" x1="2094.93" y1="372.069" x2="-148.514" y2="681.039" gradientUnits="userSpaceOnUse">
<stop stop-color="#7ED4EF"/>
<stop offset="0.2294" stop-color="#66BFE6"/>
<stop offset="0.711" stop-color="#298BD0"/>
<stop offset="1" stop-color="#0169C2"/>
</linearGradient>
<linearGradient id="paint8_linear_307_178" x1="2104.24" y1="380.205" x2="-152.784" y2="691.044" gradientUnits="userSpaceOnUse">
<stop stop-color="#7ED4EF"/>
<stop offset="0.2294" stop-color="#66BFE6"/>
<stop offset="0.711" stop-color="#298BD0"/>
<stop offset="1" stop-color="#0169C2"/>
</linearGradient>
<linearGradient id="paint9_linear_307_178" x1="2113.48" y1="387.947" x2="-157.115" y2="700.656" gradientUnits="userSpaceOnUse">
<stop stop-color="#7ED4EF"/>
<stop offset="0.2294" stop-color="#66BFE6"/>
<stop offset="0.711" stop-color="#298BD0"/>
<stop offset="1" stop-color="#0169C2"/>
</linearGradient>
<linearGradient id="paint10_linear_307_178" x1="2122.7" y1="395.441" x2="-161.474" y2="710.02" gradientUnits="userSpaceOnUse">
<stop stop-color="#7ED4EF"/>
<stop offset="0.2294" stop-color="#66BFE6"/>
<stop offset="0.711" stop-color="#298BD0"/>
<stop offset="1" stop-color="#0169C2"/>
</linearGradient>
<linearGradient id="paint11_linear_307_178" x1="2131.89" y1="402.77" x2="-165.858" y2="719.217" gradientUnits="userSpaceOnUse">
<stop stop-color="#7ED4EF"/>
<stop offset="0.2294" stop-color="#66BFE6"/>
<stop offset="0.711" stop-color="#298BD0"/>
<stop offset="1" stop-color="#0169C2"/>
</linearGradient>
<linearGradient id="paint12_linear_307_178" x1="2141.06" y1="409.978" x2="-170.258" y2="728.294" gradientUnits="userSpaceOnUse">
<stop stop-color="#7ED4EF"/>
<stop offset="0.2294" stop-color="#66BFE6"/>
<stop offset="0.711" stop-color="#298BD0"/>
<stop offset="1" stop-color="#0169C2"/>
</linearGradient>
<linearGradient id="paint13_linear_307_178" x1="2150.23" y1="417.098" x2="-174.673" y2="737.285" gradientUnits="userSpaceOnUse">
<stop stop-color="#7ED4EF"/>
<stop offset="0.2294" stop-color="#66BFE6"/>
<stop offset="0.711" stop-color="#298BD0"/>
<stop offset="1" stop-color="#0169C2"/>
</linearGradient>
<linearGradient id="paint14_linear_307_178" x1="2159.38" y1="424.142" x2="-179.093" y2="746.198" gradientUnits="userSpaceOnUse">
<stop stop-color="#7ED4EF"/>
<stop offset="0.2294" stop-color="#66BFE6"/>
<stop offset="0.711" stop-color="#298BD0"/>
<stop offset="1" stop-color="#0169C2"/>
</linearGradient>
<linearGradient id="paint15_linear_307_178" x1="2168.52" y1="431.134" x2="-183.523" y2="755.058" gradientUnits="userSpaceOnUse">
<stop stop-color="#7ED4EF"/>
<stop offset="0.2294" stop-color="#66BFE6"/>
<stop offset="0.711" stop-color="#298BD0"/>
<stop offset="1" stop-color="#0169C2"/>
</linearGradient>
<linearGradient id="paint16_linear_307_178" x1="2177.66" y1="438.082" x2="-187.961" y2="763.877" gradientUnits="userSpaceOnUse">
<stop stop-color="#7ED4EF"/>
<stop offset="0.2294" stop-color="#66BFE6"/>
<stop offset="0.711" stop-color="#298BD0"/>
<stop offset="1" stop-color="#0169C2"/>
</linearGradient>
<linearGradient id="paint17_linear_307_178" x1="2186.79" y1="444.995" x2="-192.403" y2="772.659" gradientUnits="userSpaceOnUse">
<stop stop-color="#7ED4EF"/>
<stop offset="0.2294" stop-color="#66BFE6"/>
<stop offset="0.711" stop-color="#298BD0"/>
<stop offset="1" stop-color="#0169C2"/>
</linearGradient>
<linearGradient id="paint18_linear_307_178" x1="2195.92" y1="451.874" x2="-196.847" y2="781.407" gradientUnits="userSpaceOnUse">
<stop stop-color="#7ED4EF"/>
<stop offset="0.2294" stop-color="#66BFE6"/>
<stop offset="0.711" stop-color="#298BD0"/>
<stop offset="1" stop-color="#0169C2"/>
</linearGradient>
<linearGradient id="paint19_linear_307_178" x1="2205.04" y1="458.733" x2="-201.295" y2="790.135" gradientUnits="userSpaceOnUse">
<stop stop-color="#7ED4EF"/>
<stop offset="0.2294" stop-color="#66BFE6"/>
<stop offset="0.711" stop-color="#298BD0"/>
<stop offset="1" stop-color="#0169C2"/>
</linearGradient>
<linearGradient id="paint20_linear_307_178" x1="2214.16" y1="465.573" x2="-205.748" y2="798.843" gradientUnits="userSpaceOnUse">
<stop stop-color="#7ED4EF"/>
<stop offset="0.2294" stop-color="#66BFE6"/>
<stop offset="0.711" stop-color="#298BD0"/>
<stop offset="1" stop-color="#0169C2"/>
</linearGradient>
<linearGradient id="paint21_linear_307_178" x1="2223.28" y1="472.391" x2="-210.202" y2="807.532" gradientUnits="userSpaceOnUse">
<stop stop-color="#7ED4EF"/>
<stop offset="0.2294" stop-color="#66BFE6"/>
<stop offset="0.711" stop-color="#298BD0"/>
<stop offset="1" stop-color="#0169C2"/>
</linearGradient>
<linearGradient id="paint22_linear_307_178" x1="2232.4" y1="479.197" x2="-214.657" y2="816.207" gradientUnits="userSpaceOnUse">
<stop stop-color="#7ED4EF"/>
<stop offset="0.2294" stop-color="#66BFE6"/>
<stop offset="0.711" stop-color="#298BD0"/>
<stop offset="1" stop-color="#0169C2"/>
</linearGradient>
<linearGradient id="paint23_linear_307_178" x1="2241.51" y1="485.989" x2="-219.115" y2="824.868" gradientUnits="userSpaceOnUse">
<stop stop-color="#7ED4EF"/>
<stop offset="0.2294" stop-color="#66BFE6"/>
<stop offset="0.711" stop-color="#298BD0"/>
<stop offset="1" stop-color="#0169C2"/>
</linearGradient>
<linearGradient id="paint24_linear_307_178" x1="2250.63" y1="492.767" x2="-223.574" y2="833.516" gradientUnits="userSpaceOnUse">
<stop stop-color="#7ED4EF"/>
<stop offset="0.2294" stop-color="#66BFE6"/>
<stop offset="0.711" stop-color="#298BD0"/>
<stop offset="1" stop-color="#0169C2"/>
</linearGradient>
<linearGradient id="paint25_linear_307_178" x1="2259.74" y1="499.536" x2="-228.035" y2="842.154" gradientUnits="userSpaceOnUse">
<stop stop-color="#7ED4EF"/>
<stop offset="0.2294" stop-color="#66BFE6"/>
<stop offset="0.711" stop-color="#298BD0"/>
<stop offset="1" stop-color="#0169C2"/>
</linearGradient>
<linearGradient id="paint26_linear_307_178" x1="2268.85" y1="506.298" x2="-232.497" y2="850.785" gradientUnits="userSpaceOnUse">
<stop stop-color="#7ED4EF"/>
<stop offset="0.2294" stop-color="#66BFE6"/>
<stop offset="0.711" stop-color="#298BD0"/>
<stop offset="1" stop-color="#0169C2"/>
</linearGradient>
<linearGradient id="paint27_linear_307_178" x1="2277.96" y1="513.052" x2="-236.96" y2="859.408" gradientUnits="userSpaceOnUse">
<stop stop-color="#7ED4EF"/>
<stop offset="0.2294" stop-color="#66BFE6"/>
<stop offset="0.711" stop-color="#298BD0"/>
<stop offset="1" stop-color="#0169C2"/>
</linearGradient>
<linearGradient id="paint28_linear_307_178" x1="2287.06" y1="519.801" x2="-241.426" y2="868.026" gradientUnits="userSpaceOnUse">
<stop stop-color="#7ED4EF"/>
<stop offset="0.2294" stop-color="#66BFE6"/>
<stop offset="0.711" stop-color="#298BD0"/>
<stop offset="1" stop-color="#0169C2"/>
</linearGradient>
<linearGradient id="paint29_linear_307_178" x1="2296.17" y1="526.54" x2="-245.89" y2="876.634" gradientUnits="userSpaceOnUse">
<stop stop-color="#7ED4EF"/>
<stop offset="0.2294" stop-color="#66BFE6"/>
<stop offset="0.711" stop-color="#298BD0"/>
<stop offset="1" stop-color="#0169C2"/>
</linearGradient>
<linearGradient id="paint30_linear_307_178" x1="2305.28" y1="533.277" x2="-250.355" y2="885.241" gradientUnits="userSpaceOnUse">
<stop stop-color="#7ED4EF"/>
<stop offset="0.2294" stop-color="#66BFE6"/>
<stop offset="0.711" stop-color="#298BD0"/>
<stop offset="1" stop-color="#0169C2"/>
</linearGradient>
<linearGradient id="paint31_linear_307_178" x1="2314.38" y1="540.007" x2="-254.82" y2="893.84" gradientUnits="userSpaceOnUse">
<stop stop-color="#7ED4EF"/>
<stop offset="0.2294" stop-color="#66BFE6"/>
<stop offset="0.711" stop-color="#298BD0"/>
<stop offset="1" stop-color="#0169C2"/>
</linearGradient>
</defs>
</svg>
